<svg id="Laag_1" data-name="Laag 1" xmlns="http://www.w3.org/2000/svg" viewBox="0 0 1796.68 336"><defs><style>.cls-1{fill:#78be20;}</style></defs><path class="cls-1" d="M492.24,322.18q22.92-28.41,59.89-27.32c26.26.78,45.29,12.68,56.7,35.23s15.41,50.1,12,83.46Q572,417.2,523.21,421c1.33,33.89,53.91,31.42,73.83,11.51q6.06,25,12.1,50c-21.6,12.61-42.31,18.82-62.49,18.22-22.46-.67-40.45-9.24-54.34-25.75-16.75-19.41-24.86-46.23-24-79.67.8-30.22,8.64-54.61,23.91-73.14Zm79.41,53.91c-2.36-19-10.62-27.75-24.74-27C534.08,350.36,524.22,363,524,380.72q23.81-2.34,47.62-4.64Z" transform="translate(-197.63 -175.57)"/><path class="cls-1" d="M643.91,493.86c-6.09-96.08-8.22-192.17-14.4-288.25,22.31-2.84,40.63-5.64,63-8.42q2.58,147.71,5.17,295.42-26.86.58-53.72,1.24Z" transform="translate(-197.63 -175.57)"/><path class="cls-1" d="M719.74,494.54c.58-96.1,1.2-196.21,1.85-292.31q32.11-2.07,64.23-4.07c-4.17,98.31-8.26,198.62-12.28,296.93-17.93-.87-35.86.27-53.8-.56Z" transform="translate(-197.63 -175.57)"/><path class="cls-1" d="M816,325.22q21.64-29.39,58.62-29.94c26.27-.38,45.8,10.67,58.2,32.69s17.61,49.38,15.7,82.85q-48.63,5.79-97.22,11.78c2.82,33.8,55.24,29,74.26,8.24q7.15,24.71,14.3,49.41c-21,13.55-41.43,20.67-61.62,21-22.46.32-40.81-7.44-55.42-23.33-17.59-18.65-26.88-45.09-27.47-78.54-.54-30.22,6.22-54.94,20.66-74.13Zm81.71,50.36c-3.2-18.9-11.84-27.25-25.91-25.84-12.76,1.8-22.06,14.84-21.45,32.57Q874,378.92,897.68,375.58Z" transform="translate(-197.63 -175.57)"/><path class="cls-1" d="M1352.44,494.81q-24.11-.13-48.2-.21-2.25-6.86-4.52-13.72c-10.47,14.48-30.67,21.28-47.92,20.05-19.53-1.23-35.81-10.09-49.19-26.61-13-16.92-19.63-41.89-19.69-75.34-.06-34.66,6.77-59.67,20.2-75.4S1233.3,299.38,1253,299c16.75-.38,34.14,7.32,42.29,23.46.24-6.72.48-15.43.72-22.15,20-1.82,40.07-1.62,60.11-3.39l-3.69,197.88Zm-111.31-94.66c0,23,11.73,39.91,28.37,39.94S1297,421.62,1297,400.26c.41-24.58-11.34-40.34-27.39-40.37-16.71,0-28.51,14.88-28.52,40.27Z" transform="translate(-197.63 -175.57)"/><path class="cls-1" d="M1394.45,324.4q22.33-28.86,59.31-28.54c26.27.25,45.53,11.75,57.4,34.06s16.43,49.78,13.73,83.2q-48.75,4.63-97.47,9.47c2,33.86,54.54,30.31,74,10q6.57,24.87,13.12,49.73c-21.34,13.05-41.91,19.68-62.1,19.49-22.46-.21-40.62-8.41-54.85-24.63-17.14-19.06-25.8-45.71-25.6-79.17.18-30.23,7.52-54.77,22.41-73.62Zm80.49,52.28c-2.75-19-11.19-27.52-25.29-26.45-12.8,1.49-22.4,14.32-22.22,32q23.74-2.82,47.51-5.61Z" transform="translate(-197.63 -175.57)"/><path class="cls-1" d="M1768.69,480.29a34.65,34.65,0,0,1-18,16.94c-8.22,3.45-15.75,5.31-22.58,5.17-18.55-.38-34-8.74-46.42-25.5q-20-27.58-19.22-74.12c.49-27.4,7.11-50.26,19.59-69,12.81-18.71,30.08-28.46,52.08-28.41,15.44-.08,27.82,4.62,37.1,14.91.4-37.36,1.14-83.3,1.53-120.66,19.1.4,36.93.83,56,1.27-2.79,96.19-4.66,201-7.44,297.15q-25.23-.62-50.47-1.19-.3-8.26-.61-16.54l-1.63,0Zm-23-113.38c-14.74-.31-26.51,14.77-27.31,38.54-.42,20.95,11.33,37.32,25.69,37.62s25.51-16.78,26-36.52c.47-20.95-9.93-39.33-24.34-39.64Z" transform="translate(-197.63 -175.57)"/><path class="cls-1" d="M1867.44,320.71q24.12-27.4,61-24.74c26.21,1.9,44.71,14.6,55.15,37.61s13.26,50.72,8.45,83.9q-49,1.54-97.88,3.3c-.12,33.92,52.52,33.69,73.27,14.65q5,25.23,10,50.46c-22.12,11.67-43.07,17-63.21,15.53-22.41-1.63-40-11-53.19-28.05-15.9-20.11-22.87-47.25-20.56-80.62,2.08-30.16,11-54.19,27-72.06Zm77,57.25c-1.55-19.11-9.43-28.18-23.57-28-12.87.68-23.26,12.87-24.2,30.59q23.88-1.32,47.77-2.6Z" transform="translate(-197.63 -175.57)"/><path class="cls-1" d="M416.83,315.54c41.5-54.68,19.8-140-69.11-140-40.48,0-98.09,13.6-128.71,48.17l9.84,40.45c22.94-22.95,100.94-56.08,133.83-26.7,28.22,23.24,10.34,71.43-37.16,75.89l-1.16-65.65c-11.34-1.92-40.15,6.21-53.11,14.47l-4.49,189.74c-18.41-3-35.69-11.8-50.34-22.27l-18.79,40.52c71.9,60.24,253,69,252.79-72a82.47,82.47,0,0,0-5.94-33c-12.26-29.6-35.11-33.64-39.9-37.89a59.65,59.65,0,0,0,12.24-11.79Zm-33.12,78c5.92,37.58-24.63,57.45-57.94,60.81l-.6-86.49C351,362.08,379.63,361.16,383.71,393.58Z" transform="translate(-197.63 -175.57)"/><path class="cls-1" d="M1648.32,294.28c-23.32-.4-40.25,10.22-50.09,32.24q0-13.5.08-27c-19.08,2.4-38.16,2.82-57.24,5.26.62,62.89,1.23,127.78,1.82,190.67q25.08.33,50.15.7l3.48-79.36c1.48-33.43,13.21-51,35.52-52.64a32,32,0,0,1,18.25,3.22L1662,296.47a42.42,42.42,0,0,0-13.72-2.2Z" transform="translate(-197.63 -175.57)"/><polygon class="cls-1" points="785.14 320.67 755.14 129.67 813.14 125.67 826.14 236.67 846.14 115.67 888.14 115.67 909.14 237.67 927.14 84.67 989.14 88.67 946.14 325.67 883.14 325.67 865.14 232.67 846.14 320.67 785.14 320.67"/></svg>