<?xml version="1.0" encoding="UTF-8"?>
<svg xmlns="http://www.w3.org/2000/svg" fill="none" width="250" height="96" class="Logo_logo__s0jV0 NavigationDesktop_logo__ncECW" role="img" aria-label="Efteling Logo, naar de homepage" viewBox="0 0 250 96"><path fill="#AA182C" d="M247.561 69.147a2.441 2.441 0 1 1-.005 4.88 2.441 2.441 0 0 1 .005-4.88m0 4.594c1.196 0 2.112-.958 2.112-2.16s-.919-2.147-2.112-2.147-2.115.965-2.115 2.154.925 2.153 2.115 2.153m.033-1.991h-.621v1.288h-.328v-2.903h1.114c.658 0 .945.287.945.809s-.337.74-.73.802l.876 1.288h-.403l-.85-1.288zm-.621-.288h.72c.383 0 .684-.102.684-.525s-.334-.515-.684-.515h-.72z"></path><path fill="#AA182C" fill-rule="evenodd" d="m164.19 32.693 10.282-18.588-12.07 17.162a6.3 6.3 0 0 1 1.788 1.43zm-8.593-.885-10.312-17.673 12.331 16.65a6.3 6.3 0 0 0-2.019 1.023m6.769 10.645c.575-.3 1.1-.687 1.55-1.143l4.782 9.572zm3.272-4.416 23.542-1.195-23.522-1.06c.056.35.095.703.095 1.066 0 .41-.043.806-.115 1.19Zm-40.392-1.195 27.928-1.03a7 7 0 0 0-.089 1.036c0 .334.03.648.079.965zm30.47 5.504.02-.025h-.004zm-13.928 14.042c8.726-7.527 13.582-13.604 13.928-14.042-.856 1.3-34.947 52.387-101.327 53.085C3.404 95.966.029 70.006 0 62.389c-.03-7.514 5.543-21.534 25.258-21.524 20.835 0 23.238 17.871 23.188 18.4h-26.02c-1.32 9.337 4.276 12.24 8.936 12.24 3.474 0 6.429-2.467 7.466-5.357h8.623c-2.125 5.813-8.077 10.619-15.672 10.619-12.867 0-18.684-7.99-18.284-15.699.568-10.929 11.029-12.888 14.182-12.174-3.437 1.846-4.462 5.568-4.72 6.672l14.05.01c-.155-1.507-2.558-9.153-11.97-9.153-8.511 0-14.993 6.173-15.132 14.41-.451 27.04 41.683 28.008 44.246 28.067h.001c.117.002.151.003.094.005 23.434.607 43.357-5.582 59.175-13.648l1.071-.485c-1.071.485-15.015-.796-15.015-11.623 0-5.301 3.044-11.438 13.709-11.438 11.974 0 13.392 10.645 13.405 10.754l.076.476h-19.599l-.005.105v.002a5 5 0 0 0-.011.302c0 5.486 4.353 7.267 8.101 7.775h.005c.183.02 5.031.528 9.318-2.054 1.451-.872 8.795-6.015 9.172-6.289l-.013-13.766c0-1.07-.86-2.352-2.364-2.352h-2.439v-3.61h12.936zm-23.717 3.075c-.38-1.179-1.698-4.418-5.012-4.42-3.787.002-5.009 3.248-5.373 4.42zm-39.975 8.062c0 3.587 3.097 7.402 8.838 7.402 6.227 0 10.923-3.495 10.923-8.135v-.42h-3.761l-.05.364c-.023.165-.598 4.003-4.878 4.003-1.593 0-2.667-1.298-2.667-2.5 0-.01.013-7.18.013-9.007.75.006 9.016.03 9.016.03v-3.696h-9.01l.007-12.006h-1.034l-3.824-.017c-.513 9.384-5.536 11.84-9.539 12.026v3.69h5.966zm86.14-15.21V67.79c0 1.662 1.418 2.392 2.284 2.392h3.266v3.686h-19.527v-3.69h3.956c1.164 0 2.254-1.133 2.254-2.358l-.006-9.354c0-1.146-.919-2.348-2.367-2.348h-2.409l-.02-3.801h12.569Zm40.62 15.468v-8.555c0-4.564-4.065-7.755-10.226-7.755-4.829 0-7.711 2.306-8.99 3.554v-2.721h-12.827v3.805h2.651a2.354 2.354 0 0 1 2.363 2.348v9.364c0 1.132-.995 2.348-2.363 2.348h-2.932v3.692h17.315l.01-3.695h-1.874c-1.298.003-2.35-1.077-2.35-2.359v-5.344c0-3.907 3.226-7.081 7.196-7.081 3.744 0 4.306 2.873 4.323 3.257v9.25c0 1.167-.992 2.286-2.36 2.286h-2.148v3.69h16.426v-3.693h-1.772c-1.421 0-2.442-1.06-2.442-2.388zm14.975 1.493c2.684.07 6.191.079 10.586.079l-.003-.007c12.014 0 14.328 4.77 14.248 8.912-.148 8.108-12.847 9.185-17.771 9.05-6.729-.182-14.814-3.162-14.985-7.795h7.35c.668 2.777 4.766 3.761 7.876 3.761 5.278 0 8.964-1.13 8.964-4.812 0-2.774-2.41-4.237-5.976-4.237a896 896 0 0 0-8.968-.019l-1.982.002c-6.927 0-8.378-3.273-8.378-5.658 0-3.194 3.619-4.33 3.619-4.33-1.92-1.195-3.11-3.12-3.11-5.013 0-4.48 6.504-8.116 14.532-8.116 3.953 0 7.533.886 10.153 2.32 0 0 .06.029.166.088 1.282-.782 2.085-1.971 2.085-1.971h6.577s-1.206 3.061-5.004 5.509c.334.65.556 1.377.556 2.173 0 4.482-4.865 8.115-14.533 8.115-2.389 0-4.643-.33-6.636-.905-1.653.462-1.607 2.794.634 2.854m11.955-10.114c0-2.629-2.681-4.769-5.963-4.769-3.292 0-5.962 2.134-5.962 4.77s2.68 4.775 5.962 4.775 5.963-2.147 5.963-4.776m-89.998 8.654V61.21c-5.622 5.536-9.545 9.066-14.536 12.653h20.208v-3.689h-3.401c-1.183 0-2.274-1.057-2.274-2.358zm-73.492 6.047H46.873l-.007.004v-3.69h3.996c1.679 0 2.38-1.539 2.38-2.361V53.719c-.093-8.29 7.073-11.223 13.68-11.223 5.155 0 7.773 1.77 8.659 3.409a3.587 3.587 0 0 1-2.945 5.635 3.587 3.587 0 0 1-3.117-5.368c-.466-.274-1.309-.594-2.469-.594-1.556 0-5.605 1.086-5.618 6.067v3.924h8.48v3.69h-8.477l.01 8.53c0 1.292.995 2.375 2.356 2.375h4.495z" clip-rule="evenodd"></path><path fill="#BC955C" fill-rule="evenodd" d="M183.611 10.198c-3.403-2.802-2.009-6.049-.476-9.62l.001-.003.22-.514c.01-.023 0-.043-.02-.053-.016-.01-.043-.013-.056.004l-.377.432c-2.553 2.928-4.872 5.587-8.87 3.742-.047-.02-.08.033-.043.066 3.506 3.075 3.434 4.02 1.636 7.924-.014.026.006.05.029.056.017.017.047.023.063 0 2.737-3.316 3.556-3.792 7.853-1.972.046.02.079-.033.04-.066zm-35.318.043c6.289-.645 6.811-1.163 7.453-7.452.647 6.289 1.163 6.807 7.456 7.452-6.293.64-6.809 1.162-7.456 7.45-.642-6.288-1.16-6.81-7.453-7.45m-12.722 9.538c-.608 5.985-1.107 6.48-7.099 7.091 5.992.615 6.488 1.11 7.099 7.098.615-5.988 1.111-6.483 7.103-7.098-5.992-.61-6.488-1.106-7.103-7.09Zm47.762 0c-.611 5.985-1.107 6.48-7.099 7.091 5.992.615 6.488 1.11 7.099 7.098.615-5.988 1.107-6.483 7.103-7.098-5.996-.61-6.488-1.106-7.103-7.09Zm-9.505 19.414c-2.125 3.491-2.578 3.647-6.429 2.273 3.494 2.123 3.656 2.576 2.278 6.42 2.128-3.49 2.578-3.65 6.428-2.275-3.5-2.124-3.652-2.573-2.277-6.418M143.09 28.46c3.365 1.14 3.758.99 5.55-2.074-1.137 3.365-.992 3.755 2.079 5.549-3.372-1.14-3.755-.995-5.553 2.074 1.14-3.366.992-3.756-2.076-5.549m25.066 3.475c3.371-1.137 3.758-.991 5.553 2.074-1.141-3.366-.995-3.756 2.075-5.549-3.364 1.136-3.758.99-5.552-2.074 1.137 3.365.995 3.755-2.076 5.549m-1.913-19.732c.274 2.834.509 3.072 3.341 3.37-2.836.28-3.07.511-3.371 3.342-.275-2.83-.509-3.069-3.345-3.37 2.836-.273 3.074-.508 3.375-3.342m13.653 8.482-.015-.001.018-.002zm-.015-.001c-2.581.253-2.772.473-3.049 3.063-.254-2.596-.492-2.788-3.087-3.062 2.598-.25 2.809-.485 3.084-3.085.25 2.595.475 2.814 3.052 3.084m-34.74 0 .015.001.003-.003zm0 0c-2.577-.27-2.801-.49-3.052-3.084-.274 2.6-.486 2.834-3.084 3.085 2.595.274 2.833.466 3.087 3.062.277-2.59.469-2.81 3.049-3.063m14.928-2.77c-.443 4.063-.784 4.393-4.852 4.786 4.062.44 4.405.78 4.789 4.848.446-4.065.783-4.396 4.855-4.785-4.069-.44-4.399-.78-4.792-4.849m43.628 18.978c-4.095.5-6.729.823-7.329 4.39-.006.04-.069.04-.079 0-.76-3.614-1.705-3.96-6.075-4.396-.029-.004-.033-.023-.033-.043s.004-.043.033-.043c4.366-.433 5.315-.78 6.075-4.396.007-.04.073-.04.079 0 .6 3.566 3.234 3.889 7.329 4.39l.105.012c.026.004.036.02.036.037a.036.036 0 0 1-.036.036zM137.115 1.544c2.697 3.095 4.224 4.829 7.942 3.118v-.003c.043-.017.076.036.043.066-3.008 2.84-3.008 3.55-1.087 7.401.013.024-.004.047-.024.053-.016.017-.043.023-.059 0-2.743-3.312-3.394-3.603-7.212-2.008-.043.017-.076-.036-.043-.066 3.074-2.702 2.106-4.799.37-8.518-.009-.02 0-.04.017-.05a.04.04 0 0 1 .053.007" clip-rule="evenodd"></path></svg>