<?xml version="1.0" encoding="UTF-8"?>
<svg xmlns="http://www.w3.org/2000/svg" width="176" height="143" viewBox="0 0 176 143" fill="none"><path d="M161.504 50.26l-11.551 1.158a2.115 2.115 0 0 1-2.208-1.395 63.509 63.509 0 0 0-66.153-41.85 63.51 63.51 0 0 0-56.546 54.142 2.106 2.106 0 0 1-1.88 1.804l-11.558 1.158a6.672 6.672 0 0 0-5.975 7.304L10 116.161a6.683 6.683 0 0 0 7.305 5.982l27.997-2.805a2.111 2.111 0 0 1 1.585.496 63.302 63.302 0 0 0 47.384 14.741 63.324 63.324 0 0 0 43.532-23.881 2.104 2.104 0 0 1 1.455-.8l27.997-2.805a6.676 6.676 0 0 0 4.505-2.418 6.676 6.676 0 0 0 1.476-4.895l-4.362-43.548a6.672 6.672 0 0 0-7.369-5.967z" fill="#fff"/><path d="M160.184 75.237a6.356 6.356 0 0 0-3.728-1.97 6.976 6.976 0 0 0-1.524-.057 9.506 9.506 0 0 0-2.579-3.563c.06-.062.125-.12.193-.173a24.27 24.27 0 0 0 3.635-4.04 5.922 5.922 0 0 0 .734-5.891 7.562 7.562 0 0 0-2.619-3.325 8.2 8.2 0 0 0-3.606-1.473 6.16 6.16 0 0 0-1.619-.04 6.069 6.069 0 0 0-4.215 2.37l-.086.113-4.437 6.19a6.179 6.179 0 0 0-1.367 4.984 9.777 9.777 0 0 0-1.758 1.323 14.336 14.336 0 0 0-2.695 3.502 14.464 14.464 0 0 0-1.964-1.047l-.072.007-5.772-2.46a7.8 7.8 0 0 0-3.866-.679l-.344.035a6.538 6.538 0 0 0-3.773 1.937 6.18 6.18 0 0 0-.712.952 9.672 9.672 0 0 0-1.474-.757 10.109 10.109 0 0 0-3.72-.92 11.669 11.669 0 0 0-1.919.03c-.846.088-1.682.258-2.495.509A12.163 12.163 0 0 0 104.35 73a23.202 23.202 0 0 0 2.12-2.547 5.95 5.95 0 0 0 .721-5.865 7.638 7.638 0 0 0-2.628-3.324 8.195 8.195 0 0 0-3.605-1.473 6.12 6.12 0 0 0-1.58-.044 6.053 6.053 0 0 0-4.214 2.37l-.086.113-4.486 6.194a6.126 6.126 0 0 0-1.364 4.936 9.971 9.971 0 0 0-1.75 1.322 14.686 14.686 0 0 0-1.56 1.772 11.78 11.78 0 0 0-1.84-3.297 9.647 9.647 0 0 0-7.024-3.579l-.288.03c-.425-.009-.85.01-1.271.054-.376.037-.8.08-1.244.173a7.8 7.8 0 0 0-2.585.97l-.502-.015a15.43 15.43 0 0 0-1.705.082l-1.112.112a10.6 10.6 0 0 0-2.811.887 5.571 5.571 0 0 0-3.297 4.427 182.72 182.72 0 0 0-.636 5.994c-.051.538-.086 1.075-.128 1.629a6.352 6.352 0 0 0-2.028-.807 6.432 6.432 0 0 0-1.95-.104l-.143.015a5.627 5.627 0 0 0-3.956-4.565 11.573 11.573 0 0 0-3.328-.555 15.363 15.363 0 0 0-3.317.275l-.372.078a11.71 11.71 0 0 0-.74-.29 9.72 9.72 0 0 0-4.235-.496c-.872.09-1.737.24-2.588.453-.706.174-1.393.414-2.054.715.067-.629.15-1.251.225-1.865.4-3.102-1.786-5.25-4.144-6.048a12.121 12.121 0 0 0-3.94-.527c-.4.04-.804.032-1.172.07-.917.088-1.822.276-2.699.56a6.19 6.19 0 0 0-4.411 4.757c-.017.092-.03.185-.037.278-.116.941-.252 2.159-.424 3.832a239.048 239.048 0 0 0-.488 5.13 164.897 164.897 0 0 0-.394 5.825 123.78 123.78 0 0 0-.155 5.793c.002 1.874.038 3.607.14 5.197.066 1.494.29 2.978.67 4.425a6.433 6.433 0 0 0 4.532 4.345c1.327.375 2.707.523 4.084.439l.864-.086a16.424 16.424 0 0 0 2.971-.581 11.837 11.837 0 0 0 2.488-1.057c1.308.646 2.741.998 4.2 1.034.432.008.865-.009 1.296-.049a11.89 11.89 0 0 0 4.799-1.612c.26-.147.519-.303.76-.472l.476.146a13.79 13.79 0 0 0 3.941.47l1.192-.12a14.544 14.544 0 0 0 2.75-.542 7.315 7.315 0 0 0 4.262-2.939l.063-.096c.236-.387.511-.859.823-1.375.312-.516.745-1.359 1.147-2.183l.106-.237c.225-.572.466-1.154.703-1.767.12.85.318 1.687.59 2.502a6.202 6.202 0 0 0 4.263 4.162c1.171.34 2.393.472 3.61.39l.456-.046c.93-.089 1.846-.292 2.727-.604a5.769 5.769 0 0 0 3.392-2.917l.351.279a10.594 10.594 0 0 0 5.123 2.186c.537.068 1.08.076 1.619.023a7.643 7.643 0 0 0 4.383-2.055l.241.154a10.058 10.058 0 0 0 5.907 1.299l.928-.093a12.19 12.19 0 0 0 4.464-1.255 7.505 7.505 0 0 0 1.815-.99c.202-.098.396-.212.58-.341a15.162 15.162 0 0 0 1.687-1.389 10.443 10.443 0 0 0 3.169 1.63c1.544.488 3.172.653 4.783.482a15.771 15.771 0 0 0 4.911-1.381l.17-.081a14.156 14.156 0 0 0 4.565-3.786c.418-.51.817-1.044 1.197-1.599a6.976 6.976 0 0 0 4.213 4.313 10.75 10.75 0 0 0 4.335.68l.664-.066a12.07 12.07 0 0 0 3.536-.912 9.89 9.89 0 0 0 2.642-1.614l.207.133a10.073 10.073 0 0 0 5.907 1.299l.928-.093a12.24 12.24 0 0 0 4.471-1.256 7.499 7.499 0 0 0 1.816-.99c.201-.1.395-.213.58-.34a16.74 16.74 0 0 0 3.824-3.85 38.2 38.2 0 0 0 2.685-4.244 38.312 38.312 0 0 0 2.061-4.424c.542-1.371.976-2.602 1.252-3.632a5.813 5.813 0 0 0-1.26-5.723zM28.856 106.16l-.632.063.656-.066-.024.003zM55.59 91.79c.077-.282.148-.54.208-.828-.062.273-.133.53-.21.813l.002.016zm2.287-4.268l.16-.016a.717.717 0 0 0-.123-.012l-.037.028zm8.27-4.868c-.222 2.3-.349 4.583-.459 6.873.083-2.32.235-4.597.457-6.897l.002.024zm19.928 6.09c-.238.768-.49 1.553-.759 2.34.266-.811.519-1.596.757-2.363l.003.024zm-16.98-13.292l.8-.08.128-.013a4.591 4.591 0 0 0-.93.069l.002.024zm14.139 20.406c.185-.236.349-.488.49-.752-.143.256-.308.5-.492.728l.002.024zm11.235 4.32l-.688.069c.295-.014.588-.043.88-.088l-.192.019zm4.665-1.825a11.474 11.474 0 0 0 2.106-1.964 11.268 11.268 0 0 1-2.117 1.94l.01.024zm3.449-23.72l.193-.172.14-.127c-.094.106-.196.213-.289.336l-.044-.036zm.114-6.927a1.374 1.374 0 0 0 .283-1.046 1.375 1.375 0 0 1-.293 1.023l.01.023zm12.617 12.471a.528.528 0 0 1-.168.017l.168-.017zm-4.344 18.09l-.392.038.44-.044-.048.005zm.257-23.4l.096-.01.312-.031-.408.04zm11.989-1.298l.248-.025a1.31 1.31 0 0 0-.275-.005l.027.03zm21.049 21.628l-.68.069c.292-.014.583-.043.872-.088l-.192.02zm3.01-.915c.27-.083.53-.196.775-.336a3.842 3.842 0 0 1-.802.306l.027.03zm4.415-3.674a32.917 32.917 0 0 0 2.351-3.718 33.118 33.118 0 0 1-2.382 3.648l.031.07zm3.571-12.744l.16-.016a1.56 1.56 0 0 0-.192.02l.032-.004z" fill="#372876"/><path d="M101.093 31.452c-.12.012-.264.026-.333-.096a.334.334 0 0 1-.025-.248c.197-1.03.479-2.042.845-3.025.526-2.008.245-4.242 1.234-6.07a155.299 155.299 0 0 1 3.881 7.456c.641 1.317.434 1.67-.871 1.703-1.572.036-3.149.186-4.715.279m7.518 2.551a.247.247 0 0 1-.232-.066.292.292 0 0 1-.017-.168c.14-.727.338-1.441.594-2.136.36-1.41.169-2.99.841-4.27a118.601 118.601 0 0 1 2.683 5.25c.441.934.296 1.182-.599 1.2-1.08.027-2.161.127-3.214.184M61.847 48.925a2.017 2.017 0 0 1-2.72-1.343 2.164 2.164 0 0 1 1.887-2.46 2.34 2.34 0 0 1 2.41 2.045 1.93 1.93 0 0 1-.163 1.027 2.203 2.203 0 0 1-2.104 1.018M84.248 28.97l-2.208.222.471 4.703 2.208-.22-.471-4.704zm-.825-6.566l-1.276 4.552 2.137.599 1.276-4.552-2.137-.599zm1.987 12.22l-1.92 1.11 1.801 3.119 1.921-1.11-1.802-3.119zm31.716.578a1.138 1.138 0 0 1-1.016 1.233 1.125 1.125 0 0 1-1.2-1.01 1.131 1.131 0 0 1 1.007-1.24 1.134 1.134 0 0 1 1.209 1.017z" fill="#EB5D1A"/><path d="M99.912 46.437l.304 3.031a32.334 32.334 0 0 1-2.624-1.183 58.575 58.575 0 0 1 2.32-1.848zm-7.233-8.163a24.99 24.99 0 0 0 1.645-3.663c.296-.838.567-1.673.783-2.583l1.555 15.518-.052.046-.134.11a23.441 23.441 0 0 1-1.09-.626.58.58 0 0 0-.214-.124 27.57 27.57 0 0 1-1.73-1.144l-.763-7.534zm-7.495 8.095a38.394 38.394 0 0 0 3.487-2.854l.126.125.006.056.97 9.679a33.66 33.66 0 0 1-3.627 2.512l-.962-9.518zm-2.728-16.427c.312-.031.664-.067 1.038-.047l.56 2.78c-.184.09-.322.169-.42.227-.18.113-.371.203-.572.267a13.127 13.127 0 0 1-.606-3.227zm.327-3.434a14.468 14.468 0 0 1 1.12-3.255c.144.024.285.061.423.11a8.038 8.038 0 0 1-.712 3.377 5.012 5.012 0 0 1-.831-.232zm4.622 12.027c.194-.165.33-.388.389-.636a1.222 1.222 0 0 0-.14-.754 12.004 12.004 0 0 0-.73-1.236l-.827-1.315a.588.588 0 0 0-.827-.191 5.49 5.49 0 0 1-1.497.618 9.522 9.522 0 0 1-.328-.775c.272-.085.531-.206.772-.36.154-.089.313-.17.476-.242a.909.909 0 0 0 .491-.42.98.98 0 0 0 .052-.612l-.67-3.31a.804.804 0 0 0-.194-.392.805.805 0 0 0-.622-.245 24.37 24.37 0 0 0-1.312.05c.026-.39.056-.732.095-1.067.345.12.7.21 1.061.265.102.02.206.026.309.018a.804.804 0 0 0 .45-.183.941.941 0 0 0 .26-.397 8.947 8.947 0 0 0 .822-4.527.569.569 0 0 0-.31-.43 3.222 3.222 0 0 0-.647-.25 6.23 6.23 0 0 1 3.62-2.907 4.142 4.142 0 0 1 3.492.58 7.635 7.635 0 0 1 2.888 5.204c.083.615.12 1.235.113 1.855 0 .038.003.075.012.112l.015.152a22.011 22.011 0 0 1-1.493 7.356 28.284 28.284 0 0 1-1.472 3.218c-.053.11-.323.558-.392.678s-.306.49-.468.733c-.307.483-.64.945-.992 1.392-.086.106-1.06 1.27-1.07 1.255a28.946 28.946 0 0 1-2.275-2.552c.336-.22.652-.47.943-.748m-2.013-2.837l.529.844c.24.365.46.742.662 1.13a5.397 5.397 0 0 1-.839.657 20.903 20.903 0 0 1-1.408-2.202c.364-.1.719-.232 1.059-.397m6.256 4.221l.49 4.888-.105-.079-.263-.2a34.465 34.465 0 0 1-2.222-1.942 21.287 21.287 0 0 0 2.103-2.635m-1.55 4.858a32.483 32.483 0 0 0 4.352 3.11l.145 1.449-.29.247c-1.115.968-2.228 1.96-3.417 2.911l-.79-7.717zM79.336 56.206l.224 2.24a17.32 17.32 0 0 1-1.69.226 20.614 20.614 0 0 0 1.466-2.466zm-31.654 5.74c-2.592.26-5.497.623-7.711-.431-.357-.175-.7-.367-.77-.594a.804.804 0 0 1 .136-.579 3.634 3.634 0 0 1 1.6-1.291 10.65 10.65 0 0 1 3.275-1.015.637.637 0 0 0 .16-.016 20.096 20.096 0 0 0 3.313 3.958m-.756-22.143l-.217-3.299 1.487 1.217c-.476.653-.901 1.34-1.272 2.058M68.31 62.222l1.064 2.156c-1.4.65-2.874 1.127-4.39 1.418l3.326-3.574zm-2.148.418L63.8 65.179l-.196-1.952a16.6 16.6 0 0 0 2.56-.587zm-2.687-.693l-.917-9.159a6.95 6.95 0 0 0 .924-.286l4.055 8.214c-1.3.6-2.68 1.01-4.095 1.218m5.62-28.978l3.569-.026-1.275 1.55a16.386 16.386 0 0 0-2.294-1.524zM66.29 50.128c.52-.868.8-1.858.812-2.869l9.143-.916a14.897 14.897 0 0 1-2.835 9.608l-7.12-5.823zm7.318 7.637l1.532 1.26-3.535.686a16.08 16.08 0 0 0 2.003-1.946zM66.975 45.98a5.676 5.676 0 0 0-1.246-2.517l5.83-7.136a14.89 14.89 0 0 1 4.559 8.737l-9.143.916zm-5.545-4.542l-.916-9.135a14.84 14.84 0 0 1 10.071 3.184l-5.801 7.093a5.7 5.7 0 0 0-3.347-1.143m11.194 15.522a14.825 14.825 0 0 1-3.897 3.194l-4.097-8.234a5.81 5.81 0 0 0 .892-.768l7.102 5.808zm6.847-10.938l-2.013 2.73c.076-.842.091-1.689.045-2.533l1.968-.197zm-.129-1.28l-1.975.197a16.886 16.886 0 0 0-.606-2.654l2.581 2.457zm-4.49-10.862a18.844 18.844 0 0 1 5.087 9.638l-4.367-4.151-.72-5.487zm-2.506 1.43l1.21-1.478.408 3.191a15.912 15.912 0 0 0-1.621-1.744m-6.131-3.62l-5.004-3.49a18.796 18.796 0 0 1 10.993 3.44l-5.99.05zm-5.862-.689l-.193-1.92 2.928 2.042a17.099 17.099 0 0 0-2.73-.066m5.413 15.722a4.478 4.478 0 0 1-3.994 4.892 4.478 4.478 0 0 1-4.893-4.002 4.478 4.478 0 0 1 4.002-4.893 4.478 4.478 0 0 1 4.885 4.003zm-4.496 6.17l.917 9.16a14.862 14.862 0 0 1-3.99-.312l2.218-8.907a5.8 5.8 0 0 0 .817.087m.224 13.204a18.64 18.64 0 0 1-4.286-.443l.581-2.264 3.705 2.707zm-2.311-13.633l-2.193 8.913a14.83 14.83 0 0 1-4.54-2.324l5.808-7.11c.302.201.625.37.963.501m-8.85 9.152l1.266-1.549c.736.56 1.52 1.052 2.345 1.47l-3.612.08zm-2.24-.906a18.884 18.884 0 0 1-5.36-9.87 390.958 390.958 0 0 1 4.642 4.569c.07.704.447 3.251.717 5.3zM43.343 48.17l1.897-2.687a16.268 16.268 0 0 0-.065 2.503l-1.832.184zm2.622 4.068c-.712-.737-1.632-1.606-2.805-2.757l2.135-.214a15.86 15.86 0 0 0 .67 2.97zM48.99 36.72l-1.557-1.266 3.518-.692a16.075 16.075 0 0 0-1.96 1.958zm-1.384-2.608a18.74 18.74 0 0 1 10.062-5.533l-4.174 4.385-5.888 1.148zm8.843-2.38l2.449-2.573.198 1.976c-.897.127-1.782.326-2.647.596zm-6.472 5.802a14.864 14.864 0 0 1 9.247-5.12l.917 9.152a5.7 5.7 0 0 0-3.053 1.784l-7.111-5.816zm6.342 6.855a5.836 5.836 0 0 0-.722 2.552l-9.159.918a14.977 14.977 0 0 1 2.744-9.308l7.137 5.837zm-.626 3.835a5.756 5.756 0 0 0 1.533 2.965l-5.808 7.102a14.849 14.849 0 0 1-4.86-9.152l9.135-.915zm-13.318-.92a18.795 18.795 0 0 1 3.064-10.462l.361 5.619-3.425 4.843zm8.23 11.982l-1.21 1.478c-.18-1.323-.32-2.391-.42-3.14.501.593 1.046 1.15 1.63 1.662zm6.007 3.51l-.64 2.57a19.005 19.005 0 0 1-5.181-2.447l5.82-.122zm5.71.543l.194 1.936-2.745-1.995c.847.089 1.7.109 2.55.06zm12.628-2.986a18.895 18.895 0 0 1-4.456 3.428l-1.16-2.307 5.616-1.12zm-.578-3.593a16.55 16.55 0 0 0 1.39-2.257l.123 3.486-1.513-1.23zm5.922-9.756a18.787 18.787 0 0 1-1.103 6.493.627.627 0 0 0-.098.31 19.155 19.155 0 0 1-1.937 3.805l-.214-6.006 3.352-4.602zm3.749.158l.937 9.359a19.902 19.902 0 0 1-4.274 1.688l-.422-4.207a20.095 20.095 0 0 0 1.089-4.78c.844-.69 1.716-1.334 2.671-2.044m21.138-4.016l.801 7.999a33.069 33.069 0 0 1-4.52-1.244l-.429-4.288a28.271 28.271 0 0 1 4.148-2.467zm5.283-1.863l1.051 10.487a33.44 33.44 0 0 1-4.317-.424l-.873-8.711a27.425 27.425 0 0 1 4.139-1.352zm11.758-.055l.92 9.183-1.411.352a43.402 43.402 0 0 1-3.387.63l-1.087-10.855c1.676.034 3.343.265 4.965.69zm-6.161-.691l1.103 11.007c-1.478.169-2.964.25-4.452.243l-1.078-10.758a25.798 25.798 0 0 1 4.427-.492zm11.598 7.863a9.698 9.698 0 0 1-3.355 1.677l-.849-8.48.088-.008c1.848.623 4.916 2.376 5.28 4.319a2.56 2.56 0 0 1-1.161 2.443m-5.417-8.345a25.298 25.298 0 0 0-11.26-.06 29.682 29.682 0 0 0-10.356 4.455l-.317.226-.106.075a.524.524 0 0 0-.264.188 45.26 45.26 0 0 0-2.169 1.656l-1.94-19.366c.1-3.436-.811-6.003-2.706-7.655a5.563 5.563 0 0 0-4.508-1.447 7.235 7.235 0 0 0-4.894 3.407 14.278 14.278 0 0 0-.573 14.6 27.96 27.96 0 0 0 4.7 6.59 46.481 46.481 0 0 1-4.34 3.465c-.669.496-1.361 1.001-2.028 1.52a20.05 20.05 0 0 0-.07-2.303.609.609 0 0 0-.016-.168l-.006-.056a.802.802 0 0 0-.077-.203 20.042 20.042 0 0 0-6.76-12.88.104.104 0 0 0-.004-.04.66.66 0 0 0-.375-.277A20.001 20.001 0 0 0 59.59 27.19l-.056.006a.668.668 0 0 0-.192.019.58.58 0 0 0-.194.076 19.978 19.978 0 0 0-13.4 7.37.615.615 0 0 0-.15.12l-.035.052a.49.49 0 0 0-.084.137l.005.048A20.154 20.154 0 0 0 41.4 48.84a.628.628 0 0 0-.03.27.122.122 0 0 0 .006.056.603.603 0 0 0 .082.331A19.953 19.953 0 0 0 43.824 57c-1.15.194-2.264.553-3.31 1.067a4.824 4.824 0 0 0-2.102 1.77c-.252.4-.351.877-.277 1.344a.154.154 0 0 0 .006.065l1.154 11.518a.595.595 0 0 0 1.184-.118l-1.01-10.087.11.045c1.26.565 2.628.85 4.01.835l1.092 10.903a.595.595 0 0 0 1.184-.119l-1.079-10.767c.536-.054 1.133-.065 1.805-.132l1.447-.145 1.008-.101a.58.58 0 0 0-.222.523l1.098 10.959a.595.595 0 0 0 1.184-.119l-1.072-10.703a20.274 20.274 0 0 0 5.762 2.76l-3.192 12.334a.643.643 0 0 0 .464.761c.073.008.146 0 .216-.021a.635.635 0 0 0 .558-.484l3.08-12.323a20.15 20.15 0 0 0 6.183.512l.072-.008c.123.033.254.02.368-.037l.072-.007a19.84 19.84 0 0 0 6.286-1.777l3.55 7.126a.635.635 0 0 0 .633.357.514.514 0 0 0 .22-.07.635.635 0 0 0 .295-.838l-3.553-7.158a20.234 20.234 0 0 0 5.921-4.932l.067-.055a18.593 18.593 0 0 0 2.664-.267l.872 8.703a.596.596 0 0 0 1.184-.118l-.882-8.8a19.462 19.462 0 0 0 4.281-1.624l1.124 11.223a.595.595 0 0 0 1.184-.119l-1.176-11.743a33.345 33.345 0 0 0 3.634-2.432l.806 8.047a.595.595 0 0 0 1.184-.118l-.881-8.8c1.264-1.007 2.507-2.069 3.728-3.112l.733 7.32a.595.595 0 0 0 .651.532.603.603 0 0 0 .533-.651l-.816-8.143.742-.657c1.217.62 2.47 1.167 3.752 1.636l.621 6.2a.58.58 0 0 0 .215.4.588.588 0 0 0 .436.132.595.595 0 0 0 .533-.65l-.561-5.6c1.478.479 2.985.868 4.511 1.164l.779 7.767a.592.592 0 0 0 .651.532.595.595 0 0 0 .532-.65l-.746-7.448c1.429.226 2.87.365 4.316.416l1.402 13.99a.592.592 0 0 0 .651.533.595.595 0 0 0 .532-.651l-1.387-13.847c1.45 0 2.898-.091 4.336-.272l.112-.012 1.426 14.239a.593.593 0 0 0 .652.533.595.595 0 0 0 .532-.652l-1.431-14.286a40.896 40.896 0 0 0 4.808-.878l1.471 14.679a.592.592 0 0 0 .651.532.595.595 0 0 0 .533-.65l-1.493-14.895a10.291 10.291 0 0 0 4.583-2.649l.101-.115 1.902 18.982a.596.596 0 0 0 1.184-.119l-2.092-20.878c.431-3.363-5.21-5.877-7.848-6.485" fill="#372876"/><path d="M101.306 30.914l1.788-7.637 3.267 7.13-5.055.507zm-.681 1.272l2.768-.278.756 7.552.064-.007 1.054-.453-.722-7.2 2.76-.276a.625.625 0 0 0 .463-.296.597.597 0 0 0 .026-.552l-4.333-9.456a.611.611 0 0 0-.609-.35.594.594 0 0 0-.519.463L99.97 31.451a.603.603 0 0 0 .134.536.624.624 0 0 0 .513.2m8.681.77l.809-3.45 1.478 3.22-2.287.23zm-1.226 1.076a.607.607 0 0 0 .514.207l1.344-.135.335 3.344.064-.006c.328-.033.705-.144 1.07-.205l.056-.005-.32-3.2 1.375-.138a.608.608 0 0 0 .543-.573.593.593 0 0 0-.054-.276l-2.555-5.585a.613.613 0 0 0-.608-.343.614.614 0 0 0-.528.457l-1.396 5.981a.59.59 0 0 0 .133.528m7.177 1.309a.7.7 0 0 1 1.136-.61.682.682 0 0 1 .248.472.696.696 0 0 1-.361.678.693.693 0 0 1-.767-.073.703.703 0 0 1-.256-.467zm.885 1.81a1.9 1.9 0 0 0 1.699-2.068 1.898 1.898 0 1 0-3.776.378 1.9 1.9 0 0 0 2.077 1.69zm-53.205 9.83a1.56 1.56 0 0 1-1.397 1.708 1.608 1.608 0 0 1-1.715-1.396 1.608 1.608 0 0 1 1.406-1.692 1.56 1.56 0 0 1 1.707 1.397m-1.825-2.573a2.741 2.741 0 1 0 .547 5.456 2.741 2.741 0 0 0-.547-5.456z" fill="#372876"/><path d="M70.415 112.985c-.109-1.088-.736-1.542-1.88-1.428l-1.68.169.572 5.711 1.712-.172c.8-.08 1.642-.625 1.555-1.496l-.279-2.784zm-3.696-1.327a.055.055 0 0 1 0-.026.048.048 0 0 1 .011-.023.05.05 0 0 1 .02-.016.047.047 0 0 1 .027-.005l1.743-.175c1.24-.124 1.908.407 2.023 1.559l.282 2.816c.07.696-.423 1.504-1.67 1.629l-1.76.177s-.064.006-.07-.05l-.606-5.886z" fill="#3D3274"/><path d="M69.18 117.682l-1.76.176a.347.347 0 0 1-.264-.075.352.352 0 0 1-.131-.241l-.587-5.855a.36.36 0 0 1 .324-.396l1.744-.175c1.4-.14 2.214.489 2.348 1.825l.282 2.816c.065.801-.516 1.78-1.956 1.925zm-1.487-.57l1.416-.142c.672-.068 1.356-.5 1.288-1.172l-.279-2.783c-.092-.92-.555-1.27-1.555-1.17l-1.384.139.514 5.128z" fill="#3D3274"/><path d="M70.415 112.985c-.109-1.088-.736-1.542-1.88-1.428l-1.68.169.572 5.711 1.712-.172c.8-.08 1.642-.625 1.555-1.496l-.279-2.784zm-3.696-1.327a.055.055 0 0 1 0-.026.048.048 0 0 1 .011-.023.05.05 0 0 1 .02-.016.047.047 0 0 1 .027-.005l1.743-.175c1.24-.124 1.908.407 2.023 1.559l.282 2.816c.07.696-.423 1.504-1.67 1.629l-1.76.177s-.064.006-.07-.05l-.606-5.886z" fill="#3D3274"/><path d="M69.18 117.682l-1.76.176a.347.347 0 0 1-.264-.075.352.352 0 0 1-.131-.241l-.587-5.855a.36.36 0 0 1 .324-.396l1.744-.175c1.4-.14 2.214.489 2.348 1.825l.282 2.816c.065.801-.516 1.78-1.956 1.925zm-1.487-.57l1.416-.142c.672-.068 1.356-.5 1.288-1.172l-.279-2.783c-.092-.92-.555-1.27-1.555-1.17l-1.384.139.514 5.128zm4.771-6.005a.09.09 0 0 1 .046-.087.095.095 0 0 1 .033-.01l2.504-.251c.096-.009.095.136.015.144l-2.448.246.27 2.695 2-.2c.072-.007.087.145.015.152l-2 .2.285 2.84 2.447-.245c.08-.008.11.126.014.136l-2.504.251a.085.085 0 0 1-.035-.001.078.078 0 0 1-.032-.016.082.082 0 0 1-.03-.063l-.58-5.791z" fill="#3D3274"/><path d="M75.674 117.015l-2.504.251a.375.375 0 0 1-.282-.08.388.388 0 0 1-.14-.258l-.58-5.791a.396.396 0 0 1 .346-.423l2.504-.25a.359.359 0 0 1 .396.324.364.364 0 0 1-.076.272.372.372 0 0 1-.246.14l-2.153.215.211 2.104 1.704-.171a.37.37 0 0 1 .262.092.363.363 0 0 1 .12.25.354.354 0 0 1-.307.402l-1.704.171.226 2.256 2.152-.216a.359.359 0 0 1 .396.324.351.351 0 0 1-.19.35.371.371 0 0 1-.135.038z" fill="#3D3274"/><path d="M72.464 111.107a.09.09 0 0 1 .046-.087.095.095 0 0 1 .033-.01l2.504-.251c.096-.009.095.136.015.144l-2.448.246.27 2.695 2-.2c.072-.007.087.145.015.152l-2 .2.285 2.84 2.447-.245c.08-.008.11.126.014.136l-2.504.251a.085.085 0 0 1-.035-.001.078.078 0 0 1-.032-.016.082.082 0 0 1-.03-.063l-.58-5.791z" fill="#3D3274"/><path d="M75.674 117.015l-2.504.251a.375.375 0 0 1-.282-.08.388.388 0 0 1-.14-.258l-.58-5.791a.396.396 0 0 1 .346-.423l2.504-.25a.359.359 0 0 1 .396.324.364.364 0 0 1-.076.272.372.372 0 0 1-.246.14l-2.153.215.211 2.104 1.704-.171a.37.37 0 0 1 .262.092.363.363 0 0 1 .12.25.354.354 0 0 1-.307.402l-1.704.171.226 2.256 2.152-.216a.359.359 0 0 1 .396.324.351.351 0 0 1-.19.35.371.371 0 0 1-.135.038zm1.878-1.344a1.78 1.78 0 0 0 1.608.647 1.345 1.345 0 0 0 1.25-1.394c.018-.704-.422-1.145-1.545-1.55l-.36-.125c-.838-.304-1.55-.548-1.631-1.364-.082-.816.666-1.416 1.514-1.501a1.615 1.615 0 0 1 1.406.57c.073.082.016.16-.096.091a1.47 1.47 0 0 0-1.298-.533c-.752.076-1.473.536-1.39 1.36.082.824.686.965 1.53 1.244l.36.118c.838.311 1.68.639 1.655 1.692a1.495 1.495 0 0 1-1.382 1.52 1.892 1.892 0 0 1-1.686-.696.063.063 0 0 1-.009-.043.062.062 0 0 1 .022-.039.065.065 0 0 1 .042-.016c.015 0 .03.006.042.016" fill="#3D3274"/><path d="M79.202 116.742a2.192 2.192 0 0 1-1.999-.834.369.369 0 0 1 .09-.477.36.36 0 0 1 .446.019l.063.059a1.485 1.485 0 0 0 1.328.513 1.04 1.04 0 0 0 .727-.346 1.033 1.033 0 0 0 .26-.763c.01-.469-.213-.843-1.353-1.254l-.361-.133c-.837-.288-1.676-.6-1.778-1.616-.102-1.016.64-1.68 1.776-1.794a1.942 1.942 0 0 1 1.68.64.36.36 0 0 1 .108.27.363.363 0 0 1-.12.264.363.363 0 0 1-.27.086.374.374 0 0 1-.251-.13 1.184 1.184 0 0 0-1.045-.429c-.456.046-1.197.314-1.124 1.034.052.52.424.693 1.327.99l.36.117c.755.288 1.872.71 1.862 1.979a1.795 1.795 0 0 1-1.726 1.805z" fill="#3D3274"/><path d="M77.552 115.671a1.78 1.78 0 0 0 1.608.647 1.345 1.345 0 0 0 1.25-1.394c.018-.704-.422-1.145-1.545-1.55l-.36-.125c-.838-.304-1.55-.548-1.631-1.364-.082-.816.666-1.416 1.514-1.501a1.615 1.615 0 0 1 1.406.57c.073.082.016.16-.096.091a1.47 1.47 0 0 0-1.298-.533c-.752.076-1.473.536-1.39 1.36.082.824.686.965 1.53 1.244l.36.118c.838.311 1.68.639 1.655 1.692a1.495 1.495 0 0 1-1.382 1.52 1.892 1.892 0 0 1-1.686-.696.063.063 0 0 1 .013-.055.06.06 0 0 1 .023-.018.071.071 0 0 1 .029-.006z" fill="#3D3274"/><path d="M79.202 116.742a2.192 2.192 0 0 1-1.999-.834.369.369 0 0 1 .09-.477.36.36 0 0 1 .446.019l.063.059a1.485 1.485 0 0 0 1.328.513 1.04 1.04 0 0 0 .727-.346 1.033 1.033 0 0 0 .26-.763c.01-.469-.213-.843-1.353-1.254l-.361-.133c-.837-.288-1.676-.6-1.778-1.616-.102-1.016.64-1.68 1.776-1.794a1.942 1.942 0 0 1 1.68.64.36.36 0 0 1 .108.27.363.363 0 0 1-.12.264.363.363 0 0 1-.27.086.374.374 0 0 1-.251-.13 1.184 1.184 0 0 0-1.045-.429c-.456.046-1.197.314-1.124 1.034.052.52.424.693 1.327.99l.36.117c.755.288 1.872.71 1.862 1.979a1.795 1.795 0 0 1-1.726 1.805zm16.946-6.901a.08.08 0 0 1-.066.113.094.094 0 0 1-.037-.005.08.08 0 0 1-.03-.022.078.078 0 0 1-.02-.07c-.01-.104-.164-1.083-1.708-.928-1.184.119-1.67.668-1.56 1.772l.263 2.624c.116 1.16.81 1.47 1.874 1.363 1.064-.106 1.659-.618 1.549-1.714a.064.064 0 0 1 .014-.047.063.063 0 0 1 .044-.024.067.067 0 0 1 .047.015c.013.01.021.026.023.043.125 1.248-.521 1.733-1.665 1.847-1.144.115-1.885-.263-2.006-1.471l-.263-2.624c-.133-1.328.505-1.812 1.665-1.928.8-.08 1.783.128 1.873 1.032" fill="#3D3274"/><path d="M94.907 115.121c-1.431.143-2.19-.419-2.322-1.731l-.263-2.624c-.183-1.824 1.013-2.153 1.924-2.245 1.264-.126 2.105.363 2.198 1.291l.013.128-.177.252-.168.017a.376.376 0 0 1-.413-.339c-.008-.08-.08-.799-1.385-.669-1.023.103-1.386.519-1.29 1.471l.263 2.623c.088.888.524 1.2 1.548 1.098 1.024-.103 1.371-.501 1.283-1.389a.354.354 0 0 1 .323-.396.356.356 0 0 1 .357.187.353.353 0 0 1 .04.137c.117 1.337-.499 2.045-1.93 2.189zm3.235-6.578a.064.064 0 0 1 .057-.07.064.064 0 0 1 .07.057l.425 4.24a1.483 1.483 0 0 0 1.127 1.367c.206.05.42.056.628.016l.272-.027a1.51 1.51 0 0 0 1.445-1.704l-.425-4.24a.067.067 0 0 1 .015-.047.063.063 0 0 1 .043-.023.064.064 0 0 1 .07.058l.425 4.239a1.603 1.603 0 0 1-.354 1.274 1.618 1.618 0 0 1-1.19.577l-.272.028a1.615 1.615 0 0 1-1.27-.338 1.605 1.605 0 0 1-.594-1.172l-.472-4.235z" fill="#3D3274"/><path d="M100.733 114.561l-.272.027a1.904 1.904 0 0 1-1.489-.409 1.913 1.913 0 0 1-.702-1.375l-.424-4.232a.36.36 0 0 1 .077-.27.371.371 0 0 1 .246-.134.381.381 0 0 1 .143.014.376.376 0 0 1 .215.181.357.357 0 0 1 .04.137l.423 4.232a1.183 1.183 0 0 0 1.398 1.128l.272-.027a1.22 1.22 0 0 0 1.125-.881c.047-.164.06-.335.037-.504l-.435-4.343.16-.259.168-.017a.352.352 0 0 1 .144.012.354.354 0 0 1 .22.18.342.342 0 0 1 .04.139l.424 4.232a1.936 1.936 0 0 1-1.81 2.169z" fill="#3D3274"/><path d="M98.142 108.543a.064.064 0 0 1 .057-.07.064.064 0 0 1 .07.057l.425 4.24a1.483 1.483 0 0 0 1.127 1.367c.206.05.42.056.628.016l.272-.027a1.51 1.51 0 0 0 1.445-1.704l-.425-4.24a.067.067 0 0 1 .015-.047.063.063 0 0 1 .043-.023.064.064 0 0 1 .07.058l.425 4.239a1.603 1.603 0 0 1-.354 1.274 1.618 1.618 0 0 1-1.19.577l-.272.028a1.615 1.615 0 0 1-1.27-.338 1.605 1.605 0 0 1-.594-1.172l-.472-4.235z" fill="#3D3274"/><path d="M100.733 114.561l-.272.027a1.904 1.904 0 0 1-1.489-.409 1.913 1.913 0 0 1-.702-1.375l-.424-4.232a.36.36 0 0 1 .077-.27.371.371 0 0 1 .246-.134.381.381 0 0 1 .143.014.376.376 0 0 1 .215.181.357.357 0 0 1 .04.137l.423 4.232a1.183 1.183 0 0 0 1.398 1.128l.272-.027a1.22 1.22 0 0 0 1.125-.881c.047-.164.06-.335.037-.504l-.435-4.343.16-.259.168-.017a.352.352 0 0 1 .144.012.354.354 0 0 1 .22.18.342.342 0 0 1 .04.139l.424 4.232a1.936 1.936 0 0 1-1.81 2.169zm6.185-5.685c-.036-.36-.235-1.14-1.411-1.022l-1.4.14.378 3.776 1.304-.131c.68-.068 1.377-.291 1.265-1.403l-.136-1.36zm-2.233 4.893c.008.08-.128.094-.136.014l-.586-5.855s.041-.069.057-.071l1.472-.147a1.28 1.28 0 0 1 1.038.224 1.28 1.28 0 0 1 .516.929l.136 1.36c.08.8-.163 1.277-.999 1.481l1.098 1.765c.01.096-.092.13-.113.076l-1.109-1.788-1.6.161.226 1.851z" fill="#3D3274"/><path d="M104.657 114.127a.349.349 0 0 1-.354-.182.368.368 0 0 1-.041-.133l-.587-5.856a.38.38 0 0 1 .324-.396l1.472-.147a1.554 1.554 0 0 1 1.701.786c.105.199.166.417.179.641l.136 1.36a1.436 1.436 0 0 1-.847 1.701l.903 1.436a.359.359 0 0 1 .047.145.373.373 0 0 1-.204.38.364.364 0 0 1-.476-.154l-.97-1.616-1.112.112.16 1.599a.345.345 0 0 1-.331.324zm.095-2.683l1.016-.102c.696-.07 1.08-.27.999-1.078l-.137-1.36c-.057-.576-.413-.823-1.085-.755l-1.112.111.319 3.184z" fill="#3D3274"/><path d="M106.918 108.876c-.036-.36-.235-1.14-1.411-1.022l-1.4.14.378 3.776 1.304-.131c.68-.068 1.377-.291 1.265-1.403l-.136-1.36zm-2.233 4.893c.008.08-.128.094-.136.014l-.586-5.855s.041-.069.057-.071l1.472-.147a1.28 1.28 0 0 1 1.038.224 1.28 1.28 0 0 1 .516.929l.136 1.36c.08.8-.163 1.277-.999 1.481l1.098 1.765c.01.096-.092.13-.113.076l-1.109-1.788-1.6.161.226 1.851z" fill="#3D3274"/><path d="M104.657 114.127a.349.349 0 0 1-.354-.182.368.368 0 0 1-.041-.133l-.587-5.856a.38.38 0 0 1 .324-.396l1.472-.147a1.554 1.554 0 0 1 1.701.786c.105.199.166.417.179.641l.136 1.36a1.436 1.436 0 0 1-.847 1.701l.903 1.436a.359.359 0 0 1 .047.145.373.373 0 0 1-.204.38.364.364 0 0 1-.476-.154l-.97-1.616-1.112.112.16 1.599a.345.345 0 0 1-.331.324zm.095-2.683l1.016-.102c.696-.07 1.08-.27.999-1.078l-.137-1.36c-.057-.576-.413-.823-1.085-.755l-1.112.111.319 3.184zm5.618-6.744c.03-.108.16-.016.141.035l-.11.431c.009.088-.16.016-.126-.044l.095-.422zm-1.341 2.744a.082.082 0 0 1 .045-.089.085.085 0 0 1 .035-.008l2.495-.25c.104-.01.095.136.015.144l-2.416.242.27 2.696 2.008-.201c.064-.006.079.146.015.152l-2.008.201.285 2.84 2.447-.245c.08-.008.118.125.014.136l-2.496.25a.083.083 0 0 1-.067-.017.076.076 0 0 1-.029-.063l-.613-5.788z" fill="#3D3274"/><path d="M112.262 113.35l-2.504.25a.384.384 0 0 1-.147-.011.388.388 0 0 1-.132-.069.383.383 0 0 1-.134-.258l-.58-5.791a.386.386 0 0 1 .337-.422l2.504-.251a.364.364 0 0 1 .362.187.376.376 0 0 1-.288.549l-2.152.216.211 2.104 1.711-.172a.358.358 0 0 1 .382.342l.004.04-.109.285-.208.021-1.711.171.225 2.256 2.152-.215a.365.365 0 0 1 .268.079c.076.06.125.148.136.244a.363.363 0 0 1-.056.301.354.354 0 0 1-.271.144zm-1.884-7.843a.383.383 0 0 1-.33-.144l-.11-.135.141-.604a.368.368 0 0 1 .664-.111c.055.08.077.177.063.273l-.163.63-.234.08-.031.011zm-.06-.592l.056-.005.056-.006a.178.178 0 0 0-.104.011h-.008z" fill="#3D3274"/><path d="M110.37 104.7c.03-.108.16-.016.141.035l-.11.431c.009.088-.16.016-.126-.044l.095-.422zm-1.341 2.744a.082.082 0 0 1 .045-.089.085.085 0 0 1 .035-.008l2.495-.25c.104-.01.095.136.015.144l-2.416.242.27 2.696 2.008-.201c.064-.006.079.146.015.152l-2.008.201.285 2.84 2.447-.245c.08-.008.118.125.014.136l-2.496.25a.083.083 0 0 1-.067-.017.076.076 0 0 1-.029-.063l-.613-5.788z" fill="#3D3274"/><path d="M112.262 113.35l-2.504.25a.384.384 0 0 1-.147-.011.388.388 0 0 1-.132-.069.383.383 0 0 1-.134-.258l-.58-5.791a.386.386 0 0 1 .337-.422l2.504-.251a.364.364 0 0 1 .362.187.376.376 0 0 1-.288.549l-2.152.216.211 2.104 1.711-.172a.358.358 0 0 1 .382.342l.004.04-.109.285-.208.021-1.711.171.225 2.256 2.152-.215a.365.365 0 0 1 .268.079c.076.06.125.148.136.244a.363.363 0 0 1-.056.301.354.354 0 0 1-.271.144zm-1.884-7.843a.383.383 0 0 1-.33-.144l-.11-.135.141-.604a.368.368 0 0 1 .664-.111c.055.08.077.177.063.273l-.163.63-.234.08-.031.011zm-.06-.592l.056-.005.056-.006a.178.178 0 0 0-.104.011h-.008zm3.822 7.091a1.8 1.8 0 0 0 .72.532c.282.113.587.152.888.115a1.352 1.352 0 0 0 1.258-1.395c.018-.704-.422-1.145-1.553-1.549l-.352-.126c-.838-.304-1.55-.548-1.631-1.364-.082-.816.666-1.416 1.506-1.5a1.673 1.673 0 0 1 1.414.569c.073.082-.032.165-.104.092a1.46 1.46 0 0 0-1.297-.533c-.752.075-1.474.535-1.391 1.359.082.824.694.965 1.53 1.245l.367.116c.84.312 1.68.64 1.649 1.694a1.498 1.498 0 0 1-1.383 1.52 1.916 1.916 0 0 1-.932-.133 1.914 1.914 0 0 1-.754-.563.067.067 0 0 1-.009-.044.073.073 0 0 1 .022-.039.065.065 0 0 1 .084.001" fill="#3D3274"/><path d="M115.789 113.077a2.191 2.191 0 0 1-1.998-.834.37.37 0 0 1 .089-.478.372.372 0 0 1 .455.02l.054.059a1.484 1.484 0 0 0 1.328.513 1.033 1.033 0 0 0 .988-1.109c.009-.469-.206-.844-1.354-1.254l-.353-.134c-.837-.288-1.724-.595-1.825-1.611-.102-1.016.639-1.68 1.775-1.794a1.952 1.952 0 0 1 1.68.64.362.362 0 0 1 .112.267.362.362 0 0 1-.115.266.38.38 0 0 1-.53-.043 1.19 1.19 0 0 0-1.044-.429c-.448.045-1.197.314-1.125 1.034.052.52.425.692 1.327.99l.359.117c.756.288 1.873.71 1.863 1.979a1.792 1.792 0 0 1-1.686 1.801z" fill="#3D3274"/><path d="M114.14 112.006a1.8 1.8 0 0 0 .72.532c.282.113.587.152.888.115a1.352 1.352 0 0 0 1.258-1.395c.018-.704-.422-1.145-1.553-1.549l-.352-.126c-.838-.304-1.55-.548-1.631-1.364-.082-.816.666-1.416 1.506-1.5a1.673 1.673 0 0 1 1.414.569c.073.082-.032.165-.104.092a1.46 1.46 0 0 0-1.297-.533c-.752.075-1.474.535-1.391 1.359.082.824.694.965 1.53 1.245l.367.116c.84.312 1.68.64 1.649 1.694a1.498 1.498 0 0 1-1.383 1.52 1.916 1.916 0 0 1-.932-.133 1.914 1.914 0 0 1-.754-.563.068.068 0 0 1 .013-.056.066.066 0 0 1 .023-.017.072.072 0 0 1 .029-.006z" fill="#3D3274"/><path d="M115.789 113.077a2.191 2.191 0 0 1-1.998-.834.37.37 0 0 1 .089-.478.372.372 0 0 1 .455.02l.054.059a1.484 1.484 0 0 0 1.328.513 1.033 1.033 0 0 0 .988-1.109c.009-.469-.206-.844-1.354-1.254l-.353-.134c-.837-.288-1.724-.595-1.825-1.611-.102-1.016.639-1.68 1.775-1.794a1.952 1.952 0 0 1 1.68.64.362.362 0 0 1 .112.267.362.362 0 0 1-.115.266.38.38 0 0 1-.53-.043 1.19 1.19 0 0 0-1.044-.429c-.448.045-1.197.314-1.125 1.034.052.52.425.692 1.327.99l.359.117c.756.288 1.873.71 1.863 1.979a1.792 1.792 0 0 1-1.686 1.801zm-28.375.879c-.072-.72-.261-1.081-.965-1.01l-.344.034c-.176.018-.292-.091-.322-.387-.03-.296.062-.427.238-.444l.264-.027c.704-.07.819-.462.746-1.182l-.028-.279a.67.67 0 0 0-.465-.643.68.68 0 0 0-.28-.026.65.65 0 0 0-.478.266.662.662 0 0 0-.112.536l.027.272c.017.168-.097.325-.465.362-.368.037-.502-.095-.52-.263l-.02-.216a1.607 1.607 0 0 1 1.483-1.805 1.602 1.602 0 0 1 1.228.344 1.6 1.6 0 0 1 .592 1.13l.03.304a1.4 1.4 0 0 1-.538 1.476 1.33 1.33 0 0 1 .94 1.32l.042.424a1.605 1.605 0 0 1-1.584 1.928 2.028 2.028 0 0 1-1.603-.518.282.282 0 0 1-.11-.216.603.603 0 0 1 .492-.566.287.287 0 0 1 .227.09 1.132 1.132 0 0 0 .902.371c.512-.052.768-.393.693-1.144l-.07-.131z" fill="#3D3274"/><path d="M25.696 105.903a7.71 7.71 0 0 0 2.556.269c.934-.046 1.86-.201 2.757-.462a6.023 6.023 0 0 0 2.072-1.016 8.087 8.087 0 0 0 1.415-2 4.93 4.93 0 0 0 1.29 1.584 5.5 5.5 0 0 0 3.355 1.223 7.019 7.019 0 0 0 3.685-1.039 9.217 9.217 0 0 0 3.16-3.137c.054.395.147.784.278 1.16.106.579.558.978 1.34 1.199a8.901 8.901 0 0 0 2.599.297 10.409 10.409 0 0 0 2.72-.418 2.978 2.978 0 0 0 1.716-1.028c.23-.371.485-.8.783-1.299.297-.498.607-1.111.962-1.841.376-.935.762-1.91 1.16-2.936a142.46 142.46 0 0 0 1.097-2.93c.336-.922.632-1.76.815-2.505.17-.564.309-1.136.418-1.715a1.487 1.487 0 0 0-.357-1.224 1.945 1.945 0 0 0-1.053-.598 1.784 1.784 0 0 0-1.168.117c-.39.206-.683.558-.815.979-.155.41-.283.83-.383 1.258-.132.539-.297 1.153-.484 1.867-.187.713-.49 1.552-.76 2.338-.268.786-.517 1.53-.765 2.193a13.37 13.37 0 0 1-.736 1.69c-.168.34-.39.648-.66.915-.192.172-.321-.065-.384-.697-.064-.632-.1-1.477-.1-2.52.001-1.041.03-2.216.083-3.53.054-1.314.107-2.564.176-3.734.068-1.17.126-2.203.166-3.095.04-.893.078-1.487.096-1.787.018-.301-.256-.62-.833-.814a7.403 7.403 0 0 0-2.003-.316 10.335 10.335 0 0 0-2.272.228 3.818 3.818 0 0 0-1.632.64 6.929 6.929 0 0 0-1.921-1.028 5.098 5.098 0 0 0-2.24-.26c-.653.068-1.3.18-1.937.34-.68.173-1.333.44-1.94.792a7.058 7.058 0 0 0-1.71 1.399 6.64 6.64 0 0 0-1.287 2.165 17.035 17.035 0 0 0-.826 2.797 29.668 29.668 0 0 0-.58 3.654 31.422 31.422 0 0 0-.161 3.95l.004.049a15.02 15.02 0 0 1-1.143 2.538c-.652 1.075-1.04 1.55-1.16 1.409-.189-.272-.288-1.264-.298-2.976a94.19 94.19 0 0 1 .19-6.175c.145-2.415.305-5.016.558-7.813.253-2.796.526-5.474.812-8.023.06-.45-.264-.782-.966-1.018a7.492 7.492 0 0 0-2.455-.312l-.8.08a8.117 8.117 0 0 0-1.718.358 1.608 1.608 0 0 0-1.301 1.205c-.123.95-.256 2.2-.432 3.752-.176 1.553-.32 3.264-.487 5.058a131.936 131.936 0 0 0-.38 5.645c-.096 1.94-.145 3.796-.152 5.582a74.389 74.389 0 0 0 .134 4.883 16.64 16.64 0 0 0 .506 3.44 1.812 1.812 0 0 0 1.396 1.193zm14.66-8.441c.003-1.15.072-2.297.204-3.438.141-1.25.312-2.455.515-3.575.164-.99.395-1.97.692-2.93.11-.573.404-1.096.836-1.489a1.004 1.004 0 0 1 1.357.155c.438.442.833.924 1.178 1.441a131.584 131.584 0 0 1-.55 4.03 52.775 52.775 0 0 1-.798 4.201 21.332 21.332 0 0 1-1.117 3.449c-.427.98-.906 1.529-1.453 1.632l-.064.007c-.272.027-.48-.276-.616-.908a12.28 12.28 0 0 1-.209-2.573l.024-.002z" fill="url(#a)"/><path d="M95.011 73.905c.454.08.922-.006 1.317-.245a33.343 33.343 0 0 0 3.368-2.673 19.106 19.106 0 0 0 2.989-3.305 1.36 1.36 0 0 0 .173-1.423 2.976 2.976 0 0 0-1.036-1.31 3.688 3.688 0 0 0-1.608-.647 1.455 1.455 0 0 0-1.444.589l-4.578 6.325a1.704 1.704 0 0 0-.481 1.163c.004.361.124.712.343 1 .24.29.583.478.957.526z" fill="url(#b)"/><path d="M144.791 68.918a1.91 1.91 0 0 0 1.317-.245 35.07 35.07 0 0 0 3.368-2.672 19.763 19.763 0 0 0 2.989-3.305 1.38 1.38 0 0 0 .173-1.423 3 3 0 0 0-1.044-1.31 3.6 3.6 0 0 0-1.608-.647 1.441 1.441 0 0 0-1.436.588l-4.586 6.326a1.687 1.687 0 0 0-.473 1.162c-.004.362.113.714.334 1 .243.293.589.48.966.526z" fill="url(#c)"/><path d="M67.493 101.643a5.57 5.57 0 0 0 1.992.213 6.976 6.976 0 0 0 1.902-.377c.56-.209.85-.457.87-.757.07-.63.087-1.264.052-1.896-.012-1.162.01-2.716.084-4.646a5.51 5.51 0 0 0 1.312-.285c.416-.14.823-.304 1.22-.494a17.532 17.532 0 0 0 1.95 3.335 13.34 13.34 0 0 0 2.652 2.772 5.886 5.886 0 0 0 2.89 1.27 3.074 3.074 0 0 0 2.757-1.278c.316-.384.578-.81.778-1.265.24-.517.533-1.136.88-1.866l.695-1.686c.17.98.494 1.926.96 2.805a5.483 5.483 0 0 0 1.988 2.103 5.63 5.63 0 0 0 3.295.632 7.836 7.836 0 0 0 3.693-.96 3.57 3.57 0 0 0 .947-.467c.216-.172.45-.32.7-.441a12.111 12.111 0 0 0 2.764-2.806 33.078 33.078 0 0 0 2.22-3.495c.104.789.26 1.57.468 2.337a4.823 4.823 0 0 0 3.478 3.586c1.881.603 4.012.366 6.392-.713a9.503 9.503 0 0 0 3.055-2.568 24.467 24.467 0 0 0 2.539-3.858 48.462 48.462 0 0 0 3.444-7.398 61.92 61.92 0 0 0 .733-2.595c.2-.828.383-1.5.538-2.057l1.242.546a124.051 124.051 0 0 0-.081 4.678c.001 1.616.025 3.068.091 4.45a71.65 71.65 0 0 0 .247 3.684c.057.79.186 1.572.388 2.337a2.36 2.36 0 0 0 1.502 1.522 6.06 6.06 0 0 0 2.462.383 7.306 7.306 0 0 0 2.582-.598 4.37 4.37 0 0 0 1.813-1.256c.361-.404.661-.859.891-1.35.22-.466.5-1.06.855-1.79.194-.48.395-.977.594-1.49.178.907.489 1.783.923 2.599a5.53 5.53 0 0 0 1.98 2.104c1.009.54 2.158.76 3.295.631a7.861 7.861 0 0 0 3.701-.96c.335-.108.651-.265.939-.466.218-.174.455-.323.707-.442a12.04 12.04 0 0 0 2.757-2.806 31.99 31.99 0 0 0 2.359-3.718 34.538 34.538 0 0 0 1.823-3.9c.501-1.286.892-2.383 1.167-3.348a1.192 1.192 0 0 0-.205-1.24 1.792 1.792 0 0 0-1.05-.565 2.476 2.476 0 0 0-1.248.125 1.495 1.495 0 0 0-.891.946 21.135 21.135 0 0 1-3.021 6.944 17.33 17.33 0 0 1-3.997 4.221c-.343.29-.77.463-1.219.494a1.07 1.07 0 0 1-.792-.405 1.927 1.927 0 0 1-.411-.96l-.103-1.033a19.164 19.164 0 0 0 3.465-3.312 17.33 17.33 0 0 0 2.719-4.393 8.718 8.718 0 0 0 .694-4.448 5.018 5.018 0 0 0-2.53-3.641 6.05 6.05 0 0 0-1.688-.72 10.446 10.446 0 0 0-1.725-.28 6.433 6.433 0 0 0-4.585 1.575 9.64 9.64 0 0 0-2.458 3.85c-.64 1.68-.984 3.483-1.466 5.204a58.753 58.753 0 0 1-.472 1.663c-.246.768-.499 1.553-.76 2.338-.26.786-.517 1.53-.766 2.194a12.256 12.256 0 0 1-.743 1.69 3.436 3.436 0 0 1-.652.914c-.145.168-.248.025-.32-.372a10.452 10.452 0 0 1-.089-1.696c.009-.72.032-1.53.071-2.43.04-.901.097-1.78.171-2.652.074-.872.146-1.687.232-2.447.085-.76.152-1.3.231-1.639a1.529 1.529 0 0 0-.234-1.536 5.566 5.566 0 0 0-2.471-1.756l-5.772-2.46a3.217 3.217 0 0 0-1.696-.314 1.88 1.88 0 0 0-1.124.556 2.214 2.214 0 0 0-.566 1.132c-.084.467-.075.947.029 1.41-.195.715-.48 1.826-.856 3.318a42.221 42.221 0 0 1-2.108 5.407 32.25 32.25 0 0 1-1.852 3.934 19.107 19.107 0 0 1-2.278 3.306 2.674 2.674 0 0 1-2.495 1.147c-.323-.073-.571-.452-.746-1.153a12.008 12.008 0 0 1-.301-2.604c-.024-1.04.009-2.166.097-3.387a37.01 37.01 0 0 1 .405-3.458c.149-.936.358-1.86.627-2.77a2.554 2.554 0 0 1 .812-1.414.803.803 0 0 1 .994.086l.824.726c.299.317.588.385.886.21a2.23 2.23 0 0 0 .784-.887c.228-.429.371-.899.419-1.383a1.742 1.742 0 0 0-.197-1.16c-.056.006-.242-.153-.565-.468a4.009 4.009 0 0 0-1.383-.823 5.398 5.398 0 0 0-2.145-.528 7.416 7.416 0 0 0-2.729.346 7.56 7.56 0 0 0-2.662 1.494 7.246 7.246 0 0 0-1.988 2.979 27.65 27.65 0 0 0-.928 3.559 28.57 28.57 0 0 1-1.382 4.025 17.845 17.845 0 0 1-1.938 3.644 17.506 17.506 0 0 1-4.004 4.222c-.34.29-.765.463-1.211.493a1.036 1.036 0 0 1-.792-.405 2.01 2.01 0 0 1-.42-.96l-.103-1.032a18.893 18.893 0 0 0 3.457-3.311 17.112 17.112 0 0 0 2.719-4.393 8.735 8.735 0 0 0 .702-4.45 5.036 5.036 0 0 0-2.538-3.64 6.007 6.007 0 0 0-1.688-.72 10.34 10.34 0 0 0-1.733-.278 6.43 6.43 0 0 0-4.577 1.573 9.695 9.695 0 0 0-2.466 3.85c-.584 1.675-1.047 3.338-1.546 5.052-.156.54-.329 1.156-.524 1.87-.195.715-.483 1.551-.751 2.338-.269.786-.518 1.53-.766 2.193a12.277 12.277 0 0 1-.744 1.69 5.412 5.412 0 0 1-.58.907c-.24.178-.56.056-.94-.35a8.133 8.133 0 0 1-1.149-1.63 29.378 29.378 0 0 1-1.131-2.181 14.202 14.202 0 0 1-.787-1.966 14.473 14.473 0 0 0 2.323-4.797 13.12 13.12 0 0 0 .447-4.981 7.775 7.775 0 0 0-1.581-4.003 5.138 5.138 0 0 0-3.78-1.843c-.244.01-.487.035-.728.073l-.92.092a4.397 4.397 0 0 0-2.16 1.258 6.133 6.133 0 0 0-1.761-.235c-.658.01-1.313.075-1.96.196a6.352 6.352 0 0 0-1.606.5c-.455.216-.696.474-.73.776a133.99 133.99 0 0 0-.634 5.93 184.03 184.03 0 0 0-.451 6.872 82.72 82.72 0 0 0-.03 6.467 16.114 16.114 0 0 0 .659 4.571 1.608 1.608 0 0 0 1.146 1.194zm76.766-21.013c.09-.762.227-1.518.412-2.263.137-.6.315-1.19.534-1.767.112-.36.347-.67.664-.874.444-.246.88-.088 1.299.387.286.743.325 1.557.111 2.324a8.05 8.05 0 0 1-.957 2.213 11.97 11.97 0 0 1-1.328 1.748 3.325 3.325 0 0 1-.982.842c.069-.92.152-1.785.247-2.61zm-49.77 4.986c.09-.761.225-1.517.403-2.263.14-.599.32-1.189.534-1.766.112-.36.347-.67.664-.874.452-.247.888-.09 1.299.387a3.65 3.65 0 0 1 .12 2.323 8.103 8.103 0 0 1-.966 2.213 11.931 11.931 0 0 1-1.328 1.75 3.32 3.32 0 0 1-.982.84c.07-.92.152-1.784.255-2.61zM72.73 87.31c.04-1.29.149-2.576.325-3.854a13.66 13.66 0 0 1 .953-3.546 2.242 2.242 0 0 1 1.932-1.607c.47.01.758.473.851 1.401.075 1.097-.03 2.2-.311 3.263a17.205 17.205 0 0 1-1.423 3.86 8.681 8.681 0 0 1-2.465 3.066c.059-.467.109-1.336.138-2.575v-.008z" fill="url(#d)"/><defs><linearGradient id="a" x1="38.585" y1="74.444" x2="43.1" y2="110.574" gradientUnits="userSpaceOnUse"><stop stop-color="#FFEF26"/><stop offset=".02" stop-color="#FFEA21"/><stop offset=".1" stop-color="#FED70F"/><stop offset=".19" stop-color="#FDCC04"/><stop offset=".28" stop-color="#FDC800"/><stop offset=".67" stop-color="#F18F35"/><stop offset=".89" stop-color="#E96031"/><stop offset="1" stop-color="#E3312D"/></linearGradient><linearGradient id="b" x1="97.378" y1="67.073" x2="101.894" y2="103.204" gradientUnits="userSpaceOnUse"><stop stop-color="#FFEF26"/><stop offset=".02" stop-color="#FFEA21"/><stop offset=".1" stop-color="#FED70F"/><stop offset=".19" stop-color="#FDCC04"/><stop offset=".28" stop-color="#FDC800"/><stop offset=".67" stop-color="#F18F35"/><stop offset=".89" stop-color="#E96031"/><stop offset="1" stop-color="#E3312D"/></linearGradient><linearGradient id="c" x1="147.001" y1="60.846" x2="151.516" y2="96.977" gradientUnits="userSpaceOnUse"><stop stop-color="#FFEF26"/><stop offset=".02" stop-color="#FFEA21"/><stop offset=".1" stop-color="#FED70F"/><stop offset=".19" stop-color="#FDCC04"/><stop offset=".28" stop-color="#FDC800"/><stop offset=".67" stop-color="#F18F35"/><stop offset=".89" stop-color="#E96031"/><stop offset="1" stop-color="#E3312D"/></linearGradient><linearGradient id="d" x1="108.024" y1="65.718" x2="112.54" y2="101.848" gradientUnits="userSpaceOnUse"><stop stop-color="#FFEF26"/><stop offset=".02" stop-color="#FFEA21"/><stop offset=".1" stop-color="#FED70F"/><stop offset=".19" stop-color="#FDCC04"/><stop offset=".28" stop-color="#FDC800"/><stop offset=".67" stop-color="#F18F35"/><stop offset=".89" stop-color="#E96031"/><stop offset="1" stop-color="#E3312D"/></linearGradient></defs></svg>