<?xml version="1.0" encoding="UTF-8"?>
<svg id="Laag_2" xmlns="http://www.w3.org/2000/svg" version="1.1" viewBox="0 0 648.85 130.7">
  <!-- Generator: Adobe Illustrator 29.5.1, SVG Export Plug-In . SVG Version: 2.1.0 Build 141)  -->
  <defs>
    <style>
      .st0 {
        fill: #6f1c57;
      }
    </style>
  </defs>
  <g>
    <g>
      <g>
        <path class="st0" d="M590.72,43.77s-.04.01-.08.02c.03,0,.05-.01.08-.02,0,0,0,0,0,0Z"/>
        <path class="st0" d="M577.46,125.69s0,0,0,0c.12.05.24.11.36.16-.12-.06-.24-.11-.36-.17Z"/>
        <path class="st0" d="M602.92,22.67s-.03,0-.04,0c0,0,0,0,0,0,.01,0,.03,0,.04,0Z"/>
        <path class="st0" d="M574.93,68.43s0,0,0-.01c0,0,0,0,0,.01,0,0,0,0,0,0Z"/>
        <polygon class="st0" points="575.51 66.08 575.51 66.07 575.51 66.08 575.51 66.08"/>
        <path class="st0" d="M566.47,120.13c-1.7.59-2.89.4-4.48-.02-2.61-.69-5.07-1.87-7.5-3.01-7.39-3.53-14.19-8.05-21.23-12.22-4.69-2.74-9.41-5.76-14.85-6.73-1.66-.1-3.32-.04-4.93.2-1.4.15-2.6.47-3.69.89-.75.26-1.47.56-2.17.9-.24-5.3.48-12.56,4.57-19.64.61-1.03,1.28-2.05,2.03-3.06,1.85-2.48,4.13-5.36,6.58-8.19.12-.13.23-.27.35-.4.25-.28.5-.57.75-.85.44-.49.87-.97,1.32-1.45,0,0,.02-.02.03-.03.48-.52.96-1.03,1.44-1.53,0,0,0,0,0,0,2.04-2.11,4.1-4.06,6.07-5.59,10.91-8.51,33.67-24.66,35.57-26.07,5.9-4.11,12.9-9.58,12.62-17.5-.13-5.3-4.6-9.27-9.17-11.21-5.91-2.51-12.89-2.6-19.08-1.28-2.39.39-4.57,1.17-6.57,1.82-2.1.65-4.18,1.4-6.16,2.2-2.3.89-4.68,2.08-6.61,3.24-4.41,2.48-7.84,7.41-7.86,12.09,0,.12,0,.24,0,.36,0,.07,0,.14,0,.21.06,1.32.42,2.62,1.14,3.84.45.77,1.04,1.51,1.78,2.19.21.2.43.4.67.61.45.5,1.19,1.32,2.96,2.14.06-.01,1.5.54,1.93.69,3.85,1.25,6.6,2.14,18.02,1.14,3.66-.11,8.87-1.29,11.78-4.68,1.72-1.74,2.36-6.27-.12-6.78-.01,0-.02,0-.03-.01-1.32-.32-9.49-1.2-9.49-1.2,0,0-.23-.02-.58-.01-.92,0-3.15.15-3.71,1.75-.38,1.09-.36,2-.36,2l3.14.46,9,1.03s.35-1.21.73-1.9c.39-.69.69-1.47.95-1.21.26.26-.17.25-.65,1.53-.47,1.28-.55,2.54-.55,2.54,0,0-9.7-1.08-9.81-.91-.36.54-.82,1.1-1.44,1.69,0,0,0,0,0,0-.58.52-1.13.94-1.65,1.28-.66.4-1.09.61-1.79.86.64.39,1.7,1.05,2.21,1.43.45.34,1.73.78,1.48.86-.24.08-2.19-.54-3.44-1.07-.55-.23-.83-.3-1.36-.57-.03,0-.4-.21-.43-.21-4.17-1.94-7.49-5.4-7.97-9.77-.51-4.63,2.34-8.92,5.89-11.74,2.27-2.06,4.97-3.68,7.88-4.62.12-.04.25.03.28.15.03.11-.02.22-.12.27-1.79.89-3.45,1.97-5.06,3.15,2.33-.3,4.21-.22,6.04-.03.02,0,.05,0,.07,0,.04,0,.09.01.13.02.63.09,1.24.2,1.84.33,1.79.42,3.58,1.09,5.25,1.69.92.39,1.78.8,2.59,1.22.54.28,1.04.58,1.52.89-.02.04-.03.07-.03.07,2.19,1.43,3.88,3.04,5.02,4.85,3.34,5.56,1.39,12.22-3.64,16.33-.29.18-.47.31-.57.42-3.25,1.97-6.69,3.62-10.3,4.82-6.93,2.5-13.68,5.38-20.32,8.54-4.47,2.02-8.56,4.87-12.43,7.88-8.05,6.09-15.24,14.11-19.26,23.42-.12.28-.24.56-.36.85-.05.12-.09.23-.14.35-.08.2-.15.4-.23.59-1.36,3.57-2.26,7.31-2.55,11.2-.3,4.21,0,8.12,1.3,12.5.02.08,1.18,3.18,1.44,3.87-.2.47-.37.96-.53,1.46-2.11,6.75.41,14.17,5.53,18.88.64.66,1.51,1.11,2.43,1.18.03,0,.06.02.09.03.04,0,.09.01.13-.01,0,0,0,0,.02,0,0,0,0,0,0,0,0,0,0,0,0,0,0,0,0-.02,0-.03h0,0s0-.01,0-.02c.42.05.76-.07,1.05-.31.67-.37,1.16-1.2,1.38-2.36.9-4.61.22-10.66-.62-15.35l-.12-.76c-2.62,1.89-3.49,3.81-4.71,7.29,1.07,2.91,1.71,5.4.49,5.47-.7.04-1.37-.64-2.03-1.66,0-1.29.24-2.61.66-3.88.47-1.94,1.07-3.84,2.26-5.52,1.36-1.57,3.02-2.89,4.94-3.67,1.9-1,4.02-1.44,6.18-1.09,1.39.39,3.13,1.07,4.69,1.75,7.04,3.27,14.11,7.87,20.72,11.72,2.51,1.48,5.01,2.97,7.62,4.29h0c.47.22,1.15.49,1.64.7,2.18.9,4.36,1.87,6.64,2.5.27.08.52.14.76.2.44.1.88.2,1.33.27,5.37.89,10.28,0,15.19-2.49-3.02-1.25-5.81-3.04-8.21-5.28-.42-.38-.83-.77-1.23-1.17Z"/>
        <path class="st0" d="M648.78,82.93s-.59-10.85-2.24-15.91c-1.03-3.72-2.74-6.55-3.62-7.8-.98-1.94-2.15-3.81-3.52-5.59-3.11-4.09-7.07-7.43-11.31-10.25-4.32-2.67-9.18-4.29-14.12-5.25-.08-.02-.15-.04-.23-.05-4.29-1.34-8.51-1.71-12.35-1.48.59-1.82,1-3.67,1.27-5.55,0,0,0,0,0,0,.02-.13.03-.26.05-.39.01-.09.02-.17.03-.26,0-.03,0-.07.01-.1.07-.6.13-1.2.17-1.81.01-.15.02-.3.03-.45,0-.04,0-.08,0-.13.04-.74.07-1.48.06-2.24,0-.65.06-.79.04-1.44-4.08-.48-7.93-1.71-11.46-3.8.42,1.1.54,1.65.69,2.47.25,1.34.46,2.62.62,3.84.63,5.03.52,8.94.06,11.43-1.24.4-2.38.86-3.39,1.35-3.69,1.78-8.71,5.34-9.75,8.17-.18.49-.31,1.04-.33,1.6,0,.03,0,.06,0,.09,0,.04,0,.07,0,.11,0,.07,0,.14,0,.21,0,.01,0,.02,0,.04,0,.09.02.18.04.27,0,0,0,0,0,0,.03.19.09.38.17.56,0,0,0,0,0,0,.04.08.08.17.13.25,0,0,0,.02.01.02.04.07.09.14.14.2.01.02.03.04.04.06.04.05.08.09.12.13.03.04.07.07.1.11.01.01.03.02.04.04.11.1.23.19.37.27.03.02.06.04.08.05.02.01.04.02.06.03.07.04.15.08.23.11.02.01.04.02.07.03.21.09.52.12.9.1.48,0,.98-.08,1.45-.19,1.17-.22,2.53-.61,3.63-.94.85-.23,1.56-.45,2.25-.68.97-.29,1.76-.57,2.41-.85.45-.17.89-.39,1.29-.64,1.83-1.11,3.4-2.46,4.63-4.26-1.19-.08-2.43-.12-3.61-.09-1.36.05-2.64.18-3.99.39-.74,1.04-1.46,1.85-2.35,2.76-.07.07-.15.14-.22.21-.06-.25-.1-.53-.1-.86.13-.83.44-1.61.89-2.34,0,0,.07-.02.17-.05.75-.27,1.47-.48,2.17-.64.05-.01.08-.02.08-.02,0,0,0,0,0,0,2.14-.48,4.15-.51,6.34-.24.31.03.68.09,1.07.15h0c3.43.38,7.36,1.3,11.98,2.85.8.27,1.59.55,2.37.85-.02.03-.03.06-.05.08.93.28,1.91.65,2.94,1.08.76.33,1.5.67,2.23,1.02.05.02.09.04.14.07.07.03.13.07.2.1,3.93,1.97,8.21,4.8,12.05,8.18,4.61,4.26,8.51,9.55,11.74,16.13,1.28,2.62,2.02,4.46,2.72,7.51,0,.01,0-.01,0,0,.65-3.19,1.22-5.56,1.47-8.68.02-.44.07-1.24.05-1.68,0-.07-.02-.17-.01-.19.04-.12.09-.33.27-.27.05.02.24.28.26.32.25.67.26,1.35.31,2.05.1,3.96-.43,7.95-1.52,11.76-.06.2-.12.39-.18.59-.05.24-.1.47-.14.67-1.06,4.04-5.74,17.34-19.43,25.76-8.61,5.29-20.6,7.69-30.61,7.1-2.72-.25-5.28-.71-7.73-1.38,1.04-.86,2.2-1.89,3.38-3.04,0,0,0,0,.01-.01,0,0,0,0,0,0,2.58-2.49,5.27-5.52,7.07-8.49,3.26-5.37,4.47-9.55,4.33-13.76.03.03.05.07.08.1-.21-3-.71-5.33-1.16-6.71-.16-.5-.41-1.12-.71-1.81-.6-1.42-1.49-3.15-2.44-4.72-.85-1.44-1.72-2.74-2.45-3.52-.92-.99-1.6-1.67-2.11-2.15-.04-.04-.07-.08-.11-.12-.52-.51-1.06-.93-1.62-1.25-.03-.02-.06-.03-.08-.05,0,0,0,0-.01,0-.66-.38-1.37-.65-2.13-.76-3.64-.65-7.55,1.67-9.89,4.77-.08.1-.15.2-.23.3-1,1.06-2.03,2.32-2.93,3.76-.38-.28-.78-.55-1.18-.79-1.66-1.11-3.54-1.91-5.58-2.14-2.65-.32-5.35.79-7.23,2.69-.56.61-.96,1.3-1.25,2.04-1.46,2.32-4.13,7.37-4.26,11.23-.05,1.46,0,2.94.13,4.42.02.25.05.5.08.75,0,.07.02.14.02.21.03.26.06.52.1.78,0,.07.02.14.03.21.04.3.09.61.14.91.34,1.98.84,3.88,1.51,5.59,1.62,4.35,4.17,8.3,7.53,11.71,1.89,1.83,3.91,3.55,6.05,5.08,1.61,1.14,3.39,2.06,5.2,2.88,0,0,0,0,0,0,.12.06.24.11.36.17.57.27,1.15.53,1.73.78,7.34,3.08,15.68,3.97,23.69,3.67,0,.02,0,.04,0,.06.3-.02.74-.06,1.26-.12.76-.04,1.51-.09,2.26-.15,1.77-.14,3.58-.44,5.41-.87,0,0,0,0,.01,0,4.34-.79,9.59-2.98,12.11-4.81,0,0,0,0,0,0,13.8-7.78,25.55-22.82,24.47-41.48ZM577.74,113.6l.06.04s-.02.01-.03.02c-2.82-1.66-5.49-3.69-8.07-6.13-2.38-2.28-4.35-4.95-5.8-7.86-.26-.57-.47-1.13-.61-1.61-.12-.26-.77-2.6-.85-2.87-.75-2.45-1.2-4.71-1.23-7.24-.01-.83-.01-1.51,0-2.19-.02-.33-.03-.63,0-.85.13-2.06,1.16-4.11,3.15-4.96.21-.1.4.21.21.35-.87.88-1.16,1.37-1.72,2.54-.21.43-.37,1.1-.48,1.57,1-.85,2.09-1.05,4.31-.92,2.05.12,4.4,1.36,6.49,3.14-.31.88-.56,1.76-.75,2.68,0,0,0,.02,0,.02-.22,1.06-.35,2.19-.39,3.44,0,.01,0,.02,0,.03,0,.17-.01.34-.02.52,0,0,0-.01,0-.02-.01.81,0,1.66.06,2.61.08,1.38.64,3.44,1.22,4.69.57,1.25,1.2,2.29,2.57,2.57.21.04.41.02.62-.05,1.42-.46,2.75-3.23,2.75-3.23,0,0,.49-.92,1-2.43v-.04c.68-2.02,1.38-5.08,1-8.42-.13-1.16-.47-2.31-.87-3.33,0,0,0,0,0,0-.04-.11-.09-.23-.15-.36-.09-.21-1.37,1.05-1.94,1.84-1.15,1.66-1.38,2.06-1.82,3.04-.02.05,2.07,2.66,2.4,5.4-.11.11-.22.22-.34.31-.26.1-.56-.05-.73-.28-1.22-1.22-1.76-2.96-2.02-4.65-.05-.42-.09-.85-.12-1.27,0-.19-.01-.38-.02-.57-.02.05.84-1.45,1.74-2.64.49-.65,1.06-1.24,1.69-1.76.23-.19.48-.43.75-.66.68-.66,1.34-1.26,1.96-1.78,0,0,0,0,0,0,.14-.12.28-.23.42-.34,5.98-4.75,9.69-2.98,13.01.28-.22-2.88-.73-5.63-2.35-6.95-.23-.12-.08-.48.17-.37,2.86,1.55,3.77,6.54,3.23,10.11-.08,1.1-.22,2.2-.43,3.25-1.92,8.91-10.35,20.55-18.06,25.37Z"/>
      </g>
      <g>
        <path class="st0" d="M602.63,22.66s.03,0,.04,0c-.01,0-.03,0-.04,0,0,0,0,0,0,0Z"/>
        <path class="st0" d="M637.64,2.87s0-.07,0-.1c.11-1.95-2.56-3.22-5.46-2.45-.63.12-1.68.63-1.58,1.34,0,0,0,0,0,.01v.03s0-.01,0-.02l.78,4.74c.69-.45,1.51-.83,2.19-1.29,1.35-.92,2.07-1.44,3.14-2.43.11-.11.3.04.21.17-1.38,2-3.02,3.43-4.78,4.42l-.61.33c-2.94,1.58-6.08,2.8-9.34,3.51-7.62,1.91-15.72,1.97-23.2-.34-.78-1.27-1.65-2.48-2.62-3.62-1.06-1.24-2.29-2.46-3.83-3.15-.78-.36-1.67-.69-2.55-.35-.48.18-.71.57-.84.89-.01.03-.02.05-.03.08-.03.05-.07.11-.11.17,0-.03,0-.05,0-.08-.62.99-5.36,8.67-5.36,8.67.02.1.05.19.09.29.01.03.03.06.04.09.03.06.06.12.09.18.03.05.06.1.09.16,0,.02.02.03.03.05.65,1.05,2.14,2.23,4.16,3.39,0,0,.02.01.03.02,0,0,0,0,0,0,.38.22.78.44,1.2.65,0,0,0,0,0,0,.13.07.28.14.42.22,2.69,1.14,5.37,2.27,8.17,3.07,1.83.54,3.15.88,4.72,1.14,0,0,0,0,0,0,.2.04.4.07.59.09.02,0,.04,0,.05,0,.66.1,1.32.18,1.96.24,2.68.25,6.03.26,8.54.2,0-.02,5.96.13,9.78-1.06,6.41-1.99,10.98-3.46,12.85-7.51.45-.97.74-3.37.92-5.78.23-2.89.28-5.71.26-6ZM602.63,22.66s0,0,0,0c.01,0,.03,0,.04,0-.01,0-.02,0-.04,0Z"/>
      </g>
    </g>
    <path class="st0" d="M234.52,64.15c-4.3-2.56-9.06-4.18-13.83-5.62-2.88-.87-6.54-1.44-8.9-3.42-3.14-2.63-2.84-7.41-.2-10.28,1.34-1.45,3.11-2.51,4.92-3.26,1-.42,2.02-.78,3.07-1.03,2.04-.48,3.45-.39,3.45-.39,0,0-.95.73-1.27.97-.5.37-.96.8-1.34,1.29-.91,1.15-1.41,2.62-1.6,4.06-.42,3.06.89,5.88,3.18,7.86,4.38,3.79,12.09,4.59,16.51.4,4.18-3.95,2.92-11.12-1.35-14.45-4.14-3.23-10-3.94-15.08-3.6-9.93.65-20.2,6.61-24.27,15.94-2.28,5.22-2.55,11.46.43,16.48,3.25,5.49,9.43,7.65,15.23,9.3,5.03,1.42,10.82,2.73,14.45,6.79,4.03,4.51,3.08,10.95-.85,15.18-3.98,4.27-10.04,5.43-15.69,5.43-9.37,0-12.45-5.91-12.45-5.91,0,0,1.98,1.54,3.09,2.15,1.54.85,3.24,1.44,4.99,1.7,2.93.43,5.99-.21,8.2-2.28,3.77-3.53,4.5-9.76,1.77-14.1-6-9.53-22.96-6.3-25.31,4.58-1.23,5.69,1.67,11.05,6.49,14.01,4.16,2.56,9.18,3.58,14.02,3.76,11.99.44,23.23-5.22,29.27-15.72,3.03-5.25,5.17-11.93,3.39-17.95-1.55-5.22-5.76-9.17-10.31-11.89"/>
    <path class="st0" d="M176.14,76.76c-.36,3.63-1.16,10.53-6.12,10.53-1.64,0-3.07-.94-3.95-2.29-1.02-1.57-1.11-3.3-1.05-5.12.01-.39.03-.77.02-1.16-.02-1.84-.04-3.66-.09-5.5-.1-4.83-.3-9.64-.55-14.46-.07-1.21-.13-2.42-.2-3.63-.06-1.12-.17-2.21.28-3.27.36-.87.96-1.63,1.61-2.31,2.09-2.21,4.81-1.61,6.54.68,1.47,1.96,2.27,4.41,2.82,6.76,1.51,6.34,1.32,13.29.68,19.75M191.27,52.6c-2.38-6.12-7.3-12.19-14.42-12.19-5.35,0-10.13,3.19-13.06,7.53-.06-1.54-.15-3.07-.23-4.6-.1-1.61,0-2.89-2.04-2.84-2.78.07-5.56.04-8.34.04h-3.52c-1.78,0-3.78-.28-5.47.45-.91.39-1.5,1.13-1.61,2.12-.21,1.87.6,1.77,2.09,1.29.66-.2,3.66-1.62,4.2-.93.17.22.17.59.16.86-.09,5.59-.58,11.2-.74,16.8-.16,5.75-.26,11.51-.31,17.26-.08,7.35.15,14.68.58,22.01.1,1.64.13,3.32.35,4.95.04.34.27,1.23-.22,1.35-.52.15-1.17-.11-1.67-.25-.81-.25-2.6-.88-2.46.63.08.86.58,2.57,1.59,2.72,2.14.29,4.33-.04,6.46-.15,1.69-.09,3.38-.18,5.08-.27,2.33-.13,4.67-.28,7.01-.43.84-.04,1.98.14,2.2-.94.12-.64-.11-1.3-.65-1.67-.29-.2-.71-.1-1.02-.26-.38-.2-.38-.8-.36-1.17q.07-2.57.1-3.85c.09-4.07.06-5.37.08-8.05,0-1.1.02-2.21.03-3.31,0-.53,0-1.31,0-1.91.49.39,1,.75,1.49,1.05.57.34,1.16.64,1.78.88,1.42.55,2.94.83,4.46.91,2.5.1,5.06-.25,7.41-1.13,4.15-1.55,7.36-4.76,9.45-8.61,4.54-8.35,5.03-19.47,1.6-28.26"/>
    <path class="st0" d="M126.91,86.51c-1,.83-2.29,1.2-3.56,1.39-1.82.26-3.3-.42-4.37-1.9-2.14-2.92-2.92-6.94-3.69-10.38-1.45-6.54-2.5-13.22-2.78-19.93-.15-3.52-.87-9.95,3.35-11.53,3.89-1.45,6.2,2.84,7.1,5.9,1.13,3.85,2.01,7.78,2.88,11.69,1,4.53,1.96,9.09,2.65,13.68.51,3.41,1.48,8.56-1.56,11.07M120.21,40.4c-10.25,0-19.6,6.6-23.26,16.14-3.72,9.72-1.03,21.05,6.71,28.01,7.68,6.92,19.16,8.35,28.28,3.42,9.1-4.93,14.31-15.23,13.03-25.47-1.53-12.34-12.25-22.1-24.75-22.1"/>
    <path class="st0" d="M92.09,87.57c-.07-.04-.13-.11-.16-.21-.1-.31-.07-.64-.08-.96-.01-.35-.01-.71,0-1.06.03-.72.08-1.44.1-2.15.02-.72.01-1.44.02-2.16.01-1.46.03-2.92.04-4.37.03-2.92.05-5.83.04-8.75-.01-2.94-.06-5.87-.13-8.81-.07-2.92-.17-5.85-.28-8.77-.12-2.93-.25-5.86-.41-8.79-.08-1.47-.16-2.93-.24-4.39-.04-.73-.09-1.47-.13-2.2-.04-.73-.1-1.46-.12-2.2-.01-.69.04-1.41-.12-2.09-.06-.28-.17-.55-.35-.77-.2-.25-.49-.35-.8-.4-.69-.1-1.4-.08-2.09-.06-.73.03-1.46.07-2.19.07-2.9.02-5.8.03-8.71-.03-.66-.01-1.32,0-1.98.1-1.32.22-2.27.92-2.52,2.28-.09.47-.12,1.22.44,1.43.26.09.55.02.81-.06.33-.12.65-.25.99-.37.67-.23,1.34-.45,2.03-.62.32-.08.65-.18.97-.22.33-.04.46.22.5.51.04.35,0,.7-.04,1.04-.04.35-.08.7-.1,1.05-.08,1.45-.14,2.91-.19,4.36-.1,2.93-.17,5.87-.25,8.8-.07,2.92-.14,5.84-.19,8.77-.05,2.92-.08,5.83-.08,8.76s.03,5.85.1,8.78c.07,2.92.2,5.84.35,8.75.04.71.06,1.43.14,2.13.07.7.26,1.39.26,2.1,0,.48-.06,1.2-.7,1.17-.31-.01-.62-.15-.91-.23-.33-.1-.66-.2-1-.27-.29-.06-.63-.1-.92.01-.22.09-.35.28-.39.5-.06.3,0,.64.07.93.07.31.19.62.33.9.12.25.27.48.47.67.23.2.49.29.79.32.7.07,1.4.07,2.11.04.72-.03,1.44-.1,2.16-.14.73-.05,1.45-.09,2.18-.12,1.45-.07,2.91-.15,4.36-.23,1.27-.08,2.59-.15,3.88-.21.64-.03,1.29-.06,1.93-.09.51-.03,1.08-.07,1.46-.45.47-.45.2-1.13-.16-1.55-.19-.22-.42-.41-.68-.54-.19-.1-.44-.1-.61-.2"/>
    <path class="st0" d="M293.06,84.56c-.55-.25-1.13.31-1.61.51-.61.26-1.25.45-1.9.55-.43.07-.68.1-.58-.39.19-.88.38-1.76.55-2.64.74-3.56,1.4-7.13,1.76-10.75.61-6.14.43-12.64-1.98-18.41-4.63-11.15-17.62-15.21-28.69-11.88-5.54,1.67-10.81,5.32-13.22,10.73-1.13,2.55-1.87,6.05-.94,8.77.95,2.75,4.09,4.25,6.75,4.77,2.5.49,5.34.03,7.37-1.6,1.41-1.14,2.34-3.34,2.65-5.07.5-2.72-.12-6.13-1.98-8.24-2.1-2.37-5.14-2.4-7.88-1.19-.08.03-.16.07-.23.11-.15.07-.31.26-.39.15-.08-.12.17-.42.31-.64,1.31-2.14,4.27-3.33,6.64-3.26,2.69.09,5,1.7,6.4,3.95,1.66,2.66,2.23,5.91,2.73,8.95.22,1.32.43,2.66.59,3.99.11.92.57,2.23-.45,2.73-2.79,1.39-6.25,1.84-9.32,2.24-1.55.19-3.1.32-4.66.35-1.34.02-2.79-.22-4.11.01-1.57.28-1.98,1.5-2.33,2.88-.43,1.68-.64,3.43-.76,5.17-.2,3.14.58,6.15,2.18,8.86,2.23,3.78,5.86,6.43,10.22,7.13,2.24.34,4.52.21,6.72-.23,1.03-.2,2.02-.48,3.02-.79.9-.29,1.79-.75,2.73-.88,1.82-.26,3.75-.09,5.59-.15,2.52-.09,5.03-.28,7.53-.54,1.14-.12,2.27-.25,3.4-.4.87-.11,2.52,0,3.12-.73.51-.61.67-1.61.89-2.35.16-.55.57-1.37-.12-1.69M270.55,87.72c-.16.19-.41.27-.65.29-2.97.15-5.29-1.32-6.17-4.1-.76-2.42-.79-5.17-.57-7.67.26-2.85,1.22-5.8,3.77-7.31.8-.47,1.65-.83,2.53-1.12,1.11-.35.9,2.66.95,3.27.2,2.86.25,5.73.3,8.61.02,1.17.04,2.35.07,3.52.02.99.49,3.69-.22,4.51"/>
    <path class="st0" d="M52.07,29.29c-7.01-.77-14-.3-21.01.18-7.17.49-14.33.81-21.51.31-1.67-.12-3.34-.25-4.99-.52-1.52-.24-2.72-.61-3.94.54-2.46,2.3,3.2,3.49,4.61,3.85,2.67.68,5.63.71,8.38.68,2.3-.04,4.05-.26,3.8,2.68-.63,7.35-.9,14.73-1.07,22.1-.33,14.23.15,28.39,1.47,42.57.08.9.71,3.05-.54,3.38-1.21.32-2.52.04-3.7.52-1.11.44-2.28,2.02-2.36,3.23-.06.99,1,.89,1.67.82,4.86-.49,9.71-.98,14.57-1.38,3.66-.31,7.33-.57,11-.8,1.72-.11,3.43-.21,5.15-.29,1.31-.07,2.86.25,3.29-1.3.43-1.55-.52-1.6-1.76-1.67-.59-.02-1.18-.07-1.77-.1-.84-.04-1.68-.06-2.53-.11-1.77-.08-2.26-.93-2.14-2.65.32-6.06.43-12.11.34-18.18-.02-1.37-.04-2.73-.06-4.11-.01-.81-.13-1.23-.07-2.05.1-1.35,2.57-1.1,3.5-1.08,11.66.2,25.25-3.73,29.47-15.84,2.71-7.78,1.26-16.31-3.49-22.97-3.81-5.35-10.06-7.1-16.29-7.79M54.36,62.52c-.97,2.74-2.59,5.28-4.86,7.13-1,.81-2.13,1.48-3.33,1.96-.65.25-1.31.45-1.99.59-.36.08-2.66.49-4.25.25-1.45-.31-1.41-2.08-1.4-3.27.01-1.74-.03-3.47-.07-5.21-.07-2.33-.11-4.67-.22-6.99-.15-3.2-.3-6.4-.45-9.6-.17-3.68-.32-7.35-.39-11.04-.02-.98-.33-2.69.45-3.48.97-.98,3.21-.84,4.47-.79,3.19.15,6.23,1.19,8.53,3.46,2.06,2.03,3.3,4.74,4.04,7.5,1.65,6.19,1.61,13.42-.53,19.48"/>
    <path class="st0" d="M314.45,71.59c0,9.52.26,13.66,1.43,14.83,1.03,1.03,2.72,1.49,7.77,1.49,3.43,0,6.28-.06,7.84-1.94.84-1.04,1.49-2.66,1.68-3.88.06-.52.19-.84.58-.84.32,0,.39.26.39.97s-.45,4.6-.97,6.48c-.45,1.49-.65,1.75-4.08,1.75-5.57,0-11.07-.39-17.35-.39-2.01,0-3.95.2-6.35.2-.71,0-1.03-.13-1.03-.52,0-.19.13-.39.52-.39.58,0,1.36-.13,1.94-.26,1.29-.26,1.62-1.68,1.88-3.56.32-2.72.32-7.84.32-14.05v-11.4c0-10.1,0-11.92-.13-13.99-.13-2.2-.65-3.24-2.78-3.69-.52-.13-1.62-.19-2.2-.19-.26,0-.52-.13-.52-.39,0-.39.32-.52,1.03-.52,2.91,0,7,.2,7.32.2s5.05-.2,7-.2c.71,0,1.03.13,1.03.52,0,.26-.26.39-.52.39-.45,0-1.36.07-2.14.19-1.88.32-2.4,1.43-2.53,3.69-.13,2.07-.13,3.89-.13,13.99v11.53Z"/>
    <path class="st0" d="M364.63,68.8c.32,0,.32-.19.26-.45l-6.15-17.49c-.32-.97-.65-.97-.97,0l-5.7,17.49c-.13.32,0,.45.2.45h12.37ZM351.55,71.14c-.32,0-.52.19-.65.52l-3.88,11.46c-.58,1.62-.91,3.17-.91,4.34,0,1.29,1.23,1.88,2.33,1.88h.58c.65,0,.84.13.84.39,0,.39-.58.52-1.17.52-1.55,0-4.15-.2-4.86-.2s-4.28.2-7.32.2c-.84,0-1.23-.13-1.23-.52,0-.26.32-.39.9-.39.45,0,1.03-.07,1.56-.13,2.98-.39,4.28-2.85,5.44-6.09l14.7-40.22c.78-2.14,1.03-2.52,1.43-2.52s.65.32,1.43,2.33c.97,2.46,11.14,29.21,15.09,39.05,2.33,5.77,4.21,6.8,5.57,7.19.97.32,2.01.39,2.53.39.39,0,.71.06.71.39,0,.39-.58.52-1.29.52-.97,0-5.7,0-10.17-.13-1.23-.07-1.94-.07-1.94-.45,0-.26.19-.39.45-.45.39-.13.78-.71.39-1.75l-6.02-15.93c-.13-.26-.26-.39-.58-.39h-13.92Z"/>
    <path class="st0" d="M392.48,71.14c0-23.38.13-14.96.06-27.52,0-2.53.2-3.24.71-3.24s1.62,1.43,2.27,2.07c.97,1.1,10.62,11.53,20.6,22.21,6.41,6.86,13.47,14.76,15.54,16.9l-.71-32.9c-.07-4.21-.52-5.64-2.53-6.15-1.16-.26-2.2-.32-2.79-.32-.71,0-.9-.19-.9-.45,0-.39.52-.45,1.29-.45,2.91,0,6.02.2,6.73.2s2.85-.2,5.51-.2c.71,0,1.16.07,1.16.45,0,.26-.26.39-.71.45-.52.06-.9.13-1.68.26-1.81.39-2.27,1.36-2.27,5.83l-.13,37.82c0,4.27-.13,4.6-.58,4.6-.52,0-1.29-.71-4.73-4.15-.71-.65-10.04-10.17-16.9-17.55-7.51-8.1-14.83-16.26-16.9-18.59l.84,31.02c.13,5.31.78,7,2.53,7.51,1.23.32,2.66.39,3.24.39.33,0,.52.13.52.39,0,.39-.39.52-1.16.52-3.69,0-6.28-.2-6.87-.2s-3.3.2-6.22.2c-.65,0-1.04-.07-1.04-.52,0-.26.19-.39.52-.39.52,0,1.69-.07,2.66-.39,1.62-.45,1.94-2.33,1.94-8.22v-9.59Z"/>
    <path class="st0" d="M453.34,67.06c0,6.87.06,12.82.13,14.05.06,1.62.19,4.21.71,4.92.84,1.23,3.37,2.59,11.01,2.59,6.02,0,11.59-2.2,15.42-6.02,3.36-3.3,5.18-9.52,5.18-15.48,0-8.22-3.56-13.54-6.22-16.32-6.09-6.41-13.47-7.32-21.18-7.32-1.29,0-3.69.19-4.21.45-.58.26-.78.58-.78,1.29-.06,2.2-.06,8.81-.06,13.8v8.03ZM447.9,60.06c0-10.1,0-11.92-.13-13.99-.13-2.2-.45-3.24-2.59-3.69-.52-.13-1.62-.19-2.2-.19-.45,0-.71-.13-.71-.39,0-.39.32-.52,1.03-.52,2.91,0,7,.19,7.32.19.78,0,4.86-.19,8.74-.19,6.41,0,18.26-.58,25.97,7.38,3.24,3.37,6.28,8.74,6.28,16.45,0,8.16-3.37,14.44-6.99,18.26-2.79,2.91-8.61,7.45-19.62,7.45-2.78,0-6.22-.2-9-.39-2.85-.19-5.05-.39-5.38-.39-.13,0-1.23,0-2.59.06-1.29,0-2.79.13-3.76.13-.71,0-1.03-.13-1.03-.52,0-.19.13-.39.65-.39.71-.06,1.23-.13,1.81-.26,1.29-.26,1.62-1.68,1.88-3.56.32-2.72.32-7.84.32-14.05v-11.4Z"/>
    <path class="st0" d="M202.94,27.75c-.05-.09-.1-.17-.17-.24-.07-.07-.15-.13-.23-.19-.09-.05-.18-.1-.28-.13-.1-.03-.2-.04-.31-.05h-.17c-.05,0-.11,0-.16,0-.11,0-.22-.01-.33-.03-.11-.01-.22-.03-.33-.04-.1-.02-.21-.04-.32-.06-.1-.03-.21-.05-.32-.08-.1-.03-.21-.06-.31-.09-.1-.04-.2-.07-.31-.11-.1-.04-.2-.08-.3-.13-.1-.04-.2-.09-.29-.14-.1-.05-.19-.1-.28-.16-.09-.05-.18-.11-.27-.17-.09-.06-.18-.12-.26-.19-.09-.06-.17-.13-.25-.2-.08-.07-.16-.14-.24-.21-.08-.07-.16-.15-.23-.22-.07-.08-.15-.16-.22-.24s-.14-.16-.2-.25c-.06-.08-.13-.17-.19-.26-.06-.09-.12-.18-.18-.27-.06-.09-.11-.18-.16-.28-.05-.09-.1-.19-.15-.29-.05-.1-.09-.19-.13-.29-.04-.1-.08-.2-.12-.3-.04-.1-.07-.2-.1-.31-.03-.1-.06-.21-.09-.32-.03-.1-.05-.21-.07-.32-.02-.11-.03-.22-.05-.32-.01-.11-.03-.22-.03-.33,0-.11-.01-.22-.01-.33,0-.06,0-.11,0-.16,0-.05-.01-.1-.02-.16-.02-.1-.06-.2-.1-.29-.04-.09-.1-.17-.17-.25-.06-.07-.14-.14-.22-.19-.09-.06-.17-.1-.27-.13-.1-.03-.2-.06-.31-.06-.1,0-.21,0-.32.03-.1.02-.19.06-.28.11-.09.05-.17.11-.24.17-.07.07-.14.15-.19.23-.05.09-.09.18-.12.28-.01.05-.03.1-.03.16,0,.05-.01.11-.01.16v.16c0,.06,0,.11,0,.17,0,.11-.01.22-.03.33-.01.11-.03.22-.04.32s-.04.22-.06.32c-.03.11-.05.21-.08.32-.03.1-.06.2-.1.31-.03.1-.07.2-.11.31-.04.1-.08.2-.13.3-.04.1-.09.19-.14.29-.05.1-.1.19-.16.28-.06.09-.12.18-.17.27-.06.09-.12.18-.19.26-.06.09-.13.17-.2.25-.07.08-.14.16-.21.24-.07.08-.15.16-.23.23-.08.07-.16.15-.24.22-.08.07-.16.14-.25.2-.09.06-.17.13-.26.19-.09.06-.18.12-.27.17-.09.06-.18.11-.28.16-.09.05-.19.1-.29.15-.1.05-.19.09-.29.13-.1.04-.2.08-.3.12-.1.03-.2.07-.31.1-.1.03-.21.06-.32.09-.1.02-.21.04-.32.06-.11.02-.22.04-.32.05-.11.01-.22.03-.33.03-.11,0-.22.01-.33.01h-.08s-.06,0-.08,0c-.05,0-.1.01-.16.02-.1.02-.19.06-.28.1-.09.04-.17.1-.24.17-.07.07-.14.14-.19.23-.06.08-.1.17-.13.27-.03.1-.05.2-.05.31,0,.1,0,.21.03.32.02.1.06.19.11.28.05.09.11.17.17.24.07.07.15.13.23.18.09.05.18.09.28.12.05.01.1.03.15.03.06,0,.11.01.16.01.06,0,.11,0,.17,0,.05,0,.11,0,.16,0,.11,0,.22.01.33.03.11.01.22.03.33.04.11.02.21.04.32.06.11.03.21.05.32.08.1.03.21.06.31.09.1.04.2.07.31.12.1.04.2.08.3.13s.19.09.29.14c.09.05.19.1.28.16.09.06.19.12.27.17.09.06.18.12.26.19.09.07.17.13.25.2.08.07.16.14.24.22.08.07.16.15.23.23.07.08.15.16.22.24s.14.16.2.25c.06.09.13.17.19.26.06.09.12.18.17.27.06.09.11.19.16.28.05.1.1.19.15.29.04.1.09.19.13.29.04.1.08.2.12.31.04.1.07.2.1.31.03.1.06.21.08.32.02.1.04.21.06.32.02.1.03.21.05.32.01.11.02.22.03.33,0,.11.01.22.01.33,0,.06,0,.11,0,.16,0,.06.01.11.02.16.02.1.06.19.11.28.04.09.1.17.17.24.11.11.23.2.38.26.03.01.06.03.09.04.1.03.2.06.31.06.11,0,.22,0,.32-.03.1-.03.2-.06.29-.11.09-.05.17-.11.24-.17.07-.07.13-.14.19-.23.06-.09.1-.17.13-.27.03-.1.05-.21.05-.31,0-.06,0-.11,0-.16s0-.11,0-.16c0-.11.01-.22.02-.33.01-.11.03-.22.04-.32.02-.11.04-.22.06-.32.02-.1.05-.21.08-.32.03-.1.06-.21.09-.31.04-.1.07-.2.11-.31.04-.1.08-.2.13-.3.04-.1.09-.19.15-.29.05-.1.1-.19.16-.28.06-.09.11-.19.17-.28.06-.09.12-.17.19-.26.06-.09.13-.17.2-.25.07-.08.14-.16.22-.24.07-.08.15-.16.22-.23.08-.07.16-.15.24-.22.08-.07.16-.14.25-.2.09-.07.17-.13.26-.19.09-.06.18-.12.27-.18.09-.06.19-.11.28-.16.09-.05.19-.1.29-.15.1-.04.19-.09.29-.13.1-.04.2-.08.3-.12.1-.04.2-.07.31-.1.1-.03.21-.06.32-.08.1-.03.21-.05.32-.07s.22-.04.32-.05c.11-.01.22-.03.32-.03.11,0,.22-.01.33-.01h.16c.05,0,.11-.01.16-.02.1-.02.2-.05.29-.1.09-.04.17-.1.25-.17.07-.06.14-.14.19-.22.06-.09.1-.17.13-.27.03-.1.05-.2.06-.31,0-.11,0-.22-.03-.32-.02-.1-.06-.2-.11-.29"/>
    <path class="st0" d="M198.85,3.89s-.05-.09-.09-.12c-.03-.04-.07-.07-.12-.09-.04-.03-.09-.05-.14-.06s-.1-.03-.15-.03h-.08s-.06,0-.08,0c-.06,0-.11,0-.17-.01-.05,0-.11-.01-.16-.02-.06,0-.11-.02-.16-.03-.06-.01-.11-.03-.16-.04-.05-.01-.1-.03-.16-.04-.05-.02-.1-.04-.15-.06-.05-.02-.1-.04-.15-.06-.05-.02-.1-.05-.15-.07-.04-.03-.09-.05-.14-.08-.05-.03-.09-.06-.14-.09s-.09-.06-.13-.09c-.04-.03-.08-.07-.13-.1-.04-.04-.08-.07-.12-.11-.04-.04-.08-.07-.12-.11-.04-.04-.07-.08-.11-.12-.03-.04-.07-.08-.1-.12-.03-.04-.07-.09-.1-.13-.03-.04-.06-.09-.09-.13-.03-.05-.06-.09-.08-.14-.03-.04-.05-.09-.07-.14-.02-.05-.04-.1-.07-.15-.02-.05-.04-.1-.06-.15-.02-.05-.04-.1-.05-.16-.01-.05-.03-.1-.04-.16-.01-.06-.02-.11-.03-.16-.01-.06-.02-.11-.03-.16,0-.05-.01-.11-.01-.16,0-.05,0-.11,0-.16v-.08s0-.05-.01-.08c-.01-.05-.03-.1-.05-.15-.02-.04-.05-.09-.08-.12-.03-.04-.07-.07-.11-.1-.04-.03-.09-.05-.13-.06-.05-.02-.1-.03-.15-.03-.06,0-.11,0-.16.01-.05.01-.1.03-.14.06-.04.02-.09.05-.12.09-.04.03-.07.07-.09.12-.03.04-.05.09-.06.13,0,.03-.01.05-.02.08,0,.03,0,.06,0,.08s0,.06,0,.08c0,.03,0,.06,0,.08,0,.06,0,.11-.01.16,0,.06-.01.11-.02.16,0,.06-.02.11-.03.16-.01.06-.03.11-.04.16-.01.05-.03.1-.04.15-.02.05-.04.1-.06.15-.02.05-.04.1-.07.15-.02.05-.04.1-.07.15-.02.05-.05.09-.08.14-.03.04-.06.09-.09.14-.03.04-.06.09-.09.13-.03.04-.06.09-.1.13-.03.04-.07.08-.1.12-.04.04-.07.08-.12.12-.04.04-.08.07-.12.11-.04.03-.08.07-.12.1-.04.03-.09.07-.13.1s-.09.06-.13.09c-.05.03-.09.06-.14.08-.04.03-.09.05-.14.07-.05.02-.1.04-.15.07-.05.02-.1.04-.15.06-.05.02-.1.04-.15.05-.05.01-.1.03-.16.04-.06.01-.11.02-.16.03-.06,0-.11.01-.16.02-.06,0-.11.01-.16.01-.06,0-.11,0-.16,0h-.08s-.05,0-.08.01c-.05.01-.1.03-.15.05-.04.03-.08.05-.12.09-.04.03-.07.07-.1.11-.03.04-.05.09-.06.14s-.03.1-.03.15c0,.06,0,.11.01.16.01.05.03.1.06.14.03.04.06.08.09.12.03.03.07.06.12.09.04.03.09.05.14.06.03,0,.05.01.08.02.03,0,.05,0,.08,0h.08s.05,0,.08,0c.06,0,.11,0,.16.01.06,0,.11.01.16.02.05.01.11.02.16.03.05.01.1.02.16.04.05.01.1.03.15.05.05.02.1.04.15.06.05.02.1.04.15.06.05.02.1.05.15.07.05.02.09.05.14.08.04.03.09.06.13.09s.09.06.13.1c.04.03.08.06.12.1.04.03.08.07.12.1.04.04.07.07.11.12.04.04.07.08.11.12.04.04.07.08.1.12.03.04.06.09.09.13.03.04.06.09.09.14.03.04.06.09.08.14.03.05.05.1.07.15.03.05.04.1.07.15.02.05.04.1.06.15.02.05.04.1.05.16.01.05.03.1.04.16.01.06.02.11.03.16.01.06.02.11.03.16,0,.05.01.11.01.16,0,.05,0,.11,0,.16v.08s0,.05.01.08c.01.05.03.1.05.14.02.04.05.09.09.12.05.06.12.1.19.13.02,0,.03.01.05.02.05.02.1.03.16.03.05,0,.1,0,.16-.01.05-.01.1-.03.14-.05.04-.02.09-.05.12-.09.04-.03.07-.07.1-.12.03-.04.04-.09.06-.13.02-.05.03-.1.03-.16v-.09s0-.05,0-.08c0-.05,0-.11.01-.16,0-.05.01-.11.02-.16.01-.06.02-.11.03-.16.01-.05.02-.11.04-.16s.03-.1.05-.16c.01-.05.03-.1.06-.15.02-.05.04-.1.06-.15.02-.05.04-.1.07-.15.02-.04.05-.09.08-.14.03-.04.06-.09.09-.13s.06-.09.09-.13c.03-.04.07-.08.1-.13.03-.04.07-.08.11-.12.04-.04.07-.08.11-.12.04-.04.08-.07.12-.11.04-.03.08-.07.12-.1.04-.03.09-.07.13-.1s.09-.06.14-.09c.04-.03.09-.06.14-.08.05-.03.09-.05.14-.07s.1-.04.15-.06c.05-.02.1-.04.15-.06.05-.02.1-.03.15-.05.05-.01.1-.03.16-.04.05-.01.11-.02.16-.03.05,0,.11-.01.16-.02.06,0,.11-.01.16-.01.06,0,.11,0,.16,0h.06s.02,0,.03,0c.03,0,.05,0,.08,0,.05-.01.1-.03.15-.05.04-.02.09-.05.12-.08s.07-.07.1-.11c.03-.04.05-.09.07-.13.02-.05.03-.1.03-.15s0-.11-.01-.16c-.01-.05-.03-.1-.05-.14"/>
    <path class="st0" d="M185.26,13.77c-.03-.06-.07-.12-.12-.17-.05-.05-.1-.1-.16-.13-.06-.04-.13-.07-.19-.09-.07-.02-.14-.03-.22-.03-.04,0-.08,0-.12,0-.04,0-.08,0-.12,0-.08,0-.15,0-.23-.02-.07,0-.15-.01-.23-.03-.07-.01-.15-.03-.22-.04-.07-.01-.15-.03-.22-.05-.07-.02-.15-.04-.22-.07-.07-.02-.15-.05-.22-.08-.07-.03-.14-.06-.21-.09-.07-.03-.13-.06-.2-.1-.07-.04-.13-.07-.2-.11s-.13-.08-.19-.12c-.06-.04-.13-.09-.19-.13-.06-.05-.12-.09-.17-.14-.06-.05-.12-.1-.17-.15-.05-.05-.11-.1-.16-.16-.05-.06-.1-.11-.15-.17-.05-.06-.1-.12-.14-.17-.05-.06-.09-.12-.13-.18-.04-.06-.09-.13-.13-.19-.04-.06-.08-.13-.11-.19-.04-.07-.07-.13-.1-.2-.03-.07-.06-.14-.09-.21-.03-.07-.06-.14-.08-.21-.03-.07-.05-.14-.07-.22-.02-.07-.04-.15-.06-.22-.01-.07-.03-.15-.04-.22-.01-.07-.03-.15-.04-.23,0-.07-.01-.15-.02-.23,0-.07,0-.15,0-.23,0-.04,0-.08,0-.12,0-.04,0-.07-.01-.11-.01-.07-.04-.14-.07-.2-.03-.06-.07-.12-.12-.17-.05-.05-.1-.1-.16-.13-.06-.04-.12-.07-.19-.09-.07-.02-.15-.04-.22-.04-.07,0-.15,0-.22.02-.07.01-.13.04-.2.07-.06.03-.12.07-.17.12-.05.05-.09.1-.13.16-.03.06-.06.12-.09.19-.01.04-.02.07-.02.11,0,.04-.01.07-.01.11v.12s0,.08,0,.12c0,.07,0,.15-.01.23-.01.08-.02.15-.03.23-.01.07-.03.15-.04.22-.02.07-.04.15-.06.22-.02.07-.04.15-.07.22-.02.07-.05.14-.08.21-.03.07-.06.14-.09.21-.03.07-.06.14-.1.2-.03.06-.07.13-.11.2-.04.06-.08.13-.12.19-.04.06-.09.12-.13.18-.04.06-.09.12-.14.18-.05.06-.1.11-.15.17-.05.06-.1.11-.16.16-.05.05-.11.1-.16.15-.06.05-.12.1-.17.14-.06.04-.12.09-.18.13-.06.04-.13.09-.19.12-.06.04-.13.08-.2.12-.06.03-.13.07-.2.1-.07.03-.13.06-.2.09-.07.03-.14.06-.21.08-.07.02-.15.05-.22.07-.07.02-.15.04-.22.06-.07.02-.15.03-.22.04-.08.01-.15.03-.23.03-.07.01-.15.02-.23.02-.08,0-.15,0-.23.01h-.03s-.02,0-.03,0c-.02,0-.04,0-.06,0-.04,0-.07,0-.11.01-.07.01-.14.04-.2.07s-.12.07-.17.12c-.05.04-.1.1-.13.16-.04.06-.07.12-.09.19-.02.07-.04.14-.04.22,0,.07,0,.15.03.22.01.07.04.13.08.2.03.06.07.12.12.16.05.05.1.09.16.13.06.04.13.06.19.08.03.01.07.02.11.03.04,0,.07,0,.12,0,.04,0,.07,0,.12,0,.04,0,.07,0,.12,0,.07,0,.15.01.23.02.08,0,.15.02.23.03.07.01.15.03.22.04s.15.03.22.06c.07.02.15.04.22.07.07.02.15.05.22.08.07.03.14.06.2.09.07.03.14.06.2.1.07.03.13.07.2.11.06.04.13.08.19.12.06.04.12.09.18.13s.12.09.17.14c.06.05.12.1.17.15.05.05.11.1.16.16.05.05.1.11.15.17.05.06.09.11.14.17.04.06.09.12.13.18.04.06.09.13.13.19.04.06.07.13.11.2.04.06.07.13.1.2.03.07.06.14.09.2.03.07.06.14.08.21.03.07.05.15.07.22.02.07.04.15.06.22.01.07.03.15.04.22.01.07.03.15.03.23,0,.07.01.15.02.23,0,.07,0,.15,0,.23,0,.04,0,.08,0,.12,0,.04,0,.07.02.11.01.07.04.13.07.2.03.06.07.12.12.17.07.08.16.15.26.19.02.01.04.02.06.03.07.03.15.04.22.04.07,0,.15,0,.22-.02.07-.01.14-.04.2-.07.06-.03.12-.07.17-.12.05-.05.1-.1.13-.16.04-.06.07-.12.09-.19.02-.07.03-.15.04-.22v-.12s0-.08,0-.12c0-.08.01-.15.02-.23,0-.07.02-.15.03-.23.01-.07.03-.15.04-.22.02-.07.03-.15.06-.22.02-.07.04-.15.07-.22.02-.07.05-.15.08-.22.03-.07.06-.14.09-.21.03-.07.06-.13.1-.2.04-.07.07-.13.11-.2.04-.07.08-.13.12-.19.04-.06.08-.12.13-.18.05-.06.09-.12.14-.18.05-.06.1-.11.15-.17.05-.06.1-.11.16-.16.05-.05.11-.1.16-.15.06-.05.12-.1.17-.15.06-.04.12-.09.18-.13.06-.04.12-.09.19-.13.06-.04.13-.08.19-.12.07-.03.13-.07.2-.1.07-.03.14-.06.2-.09.07-.03.14-.06.21-.08.07-.03.15-.05.22-.07.07-.02.15-.04.22-.06.07-.02.15-.03.22-.05s.15-.03.23-.03c.07-.01.15-.02.23-.02.08,0,.15,0,.23-.01h.11s.07,0,.11-.01c.07-.01.14-.04.2-.07.06-.03.12-.07.17-.12.05-.04.1-.1.13-.15.04-.06.07-.12.09-.19.03-.07.04-.14.04-.22,0-.07,0-.15-.02-.22-.01-.07-.04-.14-.07-.2"/>
  </g>
  <g>
    <path class="st0" d="M249.76,113.35c0-5.16,0-6.15-.08-7.21-.08-1.07-.35-1.62-1.54-1.85-.31-.04-.87-.08-.95-.08-.35,0-.51-.12-.51-.28,0-.2.23-.28.59-.28,1.66,0,4.02.12,4.1.12.95,0,2.25-.12,3.78-.12,5.91,0,7.09,3.27,7.09,4.96,0,2.92-1.66,4.77-3.31,6.07,2.64.79,6.03,3.19,6.03,7.05s-2.95,7.33-8.94,7.33c-.63,0-1.42-.08-2.44-.08-1.1-.08-2.05-.12-2.21-.12-1.22,0-2.25.12-3.54.12-.36,0-.55-.08-.55-.24,0-.12.04-.31.55-.31.28,0,.39,0,.71-.08.67-.12.9-.94,1.02-1.89.2-1.46.2-4.14.2-7.21v-5.91ZM252.83,114.06c0,.28.08.31.2.39.24.04.67.12,1.97.12,2.01,0,2.6-.12,3.35-.95.63-.75,1.02-1.85,1.02-3.15,0-2.72-1.22-5.75-4.57-5.75-.32,0-1.15.08-1.5.2-.36.08-.47.16-.47.36v8.78ZM252.83,117.45c0,2.48,0,6.82.04,7.13.12,1.74.08,2.25,1.26,2.76.95.47,2.52.51,2.92.51,1.69,0,4.65-.83,4.65-4.45,0-2.01-.71-5.04-3.39-6.86-1.18-.71-1.89-.79-2.68-.87-.67-.08-2.05-.08-2.6,0-.12,0-.2.04-.2.23v1.54Z"/>
    <path class="st0" d="M272.43,113.35c0-5.16,0-6.1-.08-7.17-.08-1.1-.35-1.66-1.5-1.89-.23-.04-.63-.08-.94-.08-.28,0-.51-.12-.51-.24,0-.23.2-.31.59-.31.79,0,1.85.08,4.06.12.2,0,7.21,0,8-.04.79-.04,1.22-.08,1.54-.2.24-.08.28-.12.43-.12.08,0,.16.08.16.28,0,.24-.23.79-.31,1.77-.04.67-.08,1.3-.12,2.05,0,.35-.08.59-.28.59s-.28-.16-.28-.43c-.04-.59-.16-.98-.28-1.26-.23-.79-.59-1.07-2.56-1.18-.51-.04-4.41-.08-4.49-.08-.12,0-.2.08-.2.31v8.94c0,.23.04.39.23.39.47,0,4.49-.04,5.32-.12.91-.04,1.5-.16,1.81-.59.16-.24.28-.32.43-.32.08,0,.16.04.16.24s-.16.95-.28,2.09c-.12,1.1-.12,1.89-.16,2.4-.04.31-.12.43-.28.43-.2,0-.23-.24-.23-.51,0-.23-.04-.63-.12-.94-.16-.51-.39-1.07-1.89-1.18-.9-.08-4.1-.16-4.73-.16-.24,0-.28.12-.28.28v2.88c0,1.22-.04,4.69,0,5.36.08,1.46.28,2.21,1.1,2.56.59.28,1.53.36,2.87.36.75,0,2.01.04,2.99-.24,1.18-.36,1.46-1.14,1.77-2.6.08-.39.2-.55.36-.55.23,0,.23.35.23.59,0,.28-.31,2.76-.43,3.43-.16.79-.43.87-1.73.87-2.6,0-3.71-.08-5.08-.08-1.38-.04-3.19-.12-4.65-.12-.9,0-1.65.12-2.6.12-.36,0-.55-.08-.55-.28,0-.16.16-.28.35-.28.24,0,.51-.04.79-.12.71-.16,1.18-.67,1.26-3.11.04-1.34.08-2.95.08-5.95v-5.91Z"/>
    <path class="st0" d="M296.19,119.34c0,4.53.16,6.82.83,7.45.63.55,1.42.79,4.14.79,1.73,0,3.31,0,4.18-1.1.39-.59.67-1.38.75-1.97.04-.31.12-.47.31-.47.16,0,.24.12.24.51s-.24,2.64-.47,3.54c-.24.79-.2.98-2.09.98-2.68,0-5.63-.2-9.57-.2-1.3,0-2.09.12-3.47.12-.39,0-.63-.08-.63-.31,0-.12.12-.24.43-.24s.63,0,.95-.08c.67-.12.91-.9,1.02-1.85.24-1.5.16-4.22.16-7.25v-5.91c0-5.2,0-6.07-.08-7.13-.08-1.1-.24-1.81-1.58-1.97-.24-.04-.67-.04-.98-.04-.28,0-.43-.12-.43-.28,0-.2.2-.28.59-.28,1.66,0,4.02.12,4.1.12.55,0,2.95-.12,4.06-.12.39,0,.51.12.51.28s-.2.28-.43.28c-.28,0-.67.04-1.07.08-1.1.16-1.34.79-1.42,1.93-.08,1.07-.04,1.93-.04,7.13v5.99Z"/>
    <path class="st0" d="M333.08,126.08c0,1.58-.04,1.62-.47,1.85-2.17,1.1-5.32,1.5-7.25,1.5-2.56,0-7.52-.2-11.54-3.54-2.13-1.77-4.26-5.08-4.26-9.58,0-5.36,2.72-9.18,5.95-11.11,3.03-1.77,6.38-2.01,8.79-2.01s4.22.31,5.63.55c.63.12,2.17.31,2.99.35.32,0,.32.16.32.31,0,.47-.28,1.66-.28,5.12,0,.55-.04.71-.32.71-.2,0-.23-.24-.28-.47,0-.36-.16-1.58-.75-2.44-.9-1.3-3.74-2.76-8.15-2.76-2.13,0-4.61.08-7.25,2.09-2.01,1.54-3.31,4.53-3.31,8.43,0,4.69,2.56,8.15,3.59,9.14,2.6,2.52,5.51,3.66,8.94,3.66,1.1,0,2.84-.2,3.74-.67.39-.24.67-.63.67-1.18v-5.68c0-2.6-.2-3.11-1.58-3.31-.24-.04-.63-.08-.95-.08s-.47-.16-.47-.28c0-.2.16-.28.59-.28,1.58,0,3.86.08,4.02.08s2.48-.08,3.54-.08c.39,0,.55.08.55.28,0,.12-.12.28-.47.28-.28,0-.36,0-.67.04-.95.12-1.18.83-1.26,1.97-.08,1.15-.08,2.13-.08,3.55v3.54Z"/>
    <path class="st0" d="M343.5,113.35c0-5.2,0-6.15-.08-7.21-.08-1.07-.31-1.66-1.14-1.81-.39-.08-.67-.08-.91-.12-.28-.04-.43-.12-.43-.28,0-.2.16-.28.59-.28,1.22,0,3.46.12,3.58.12.16,0,2.44-.12,3.54-.12.39,0,.59.08.59.28,0,.16-.12.24-.43.28-.24.04-.44.04-.71.08-1.14.16-1.26.75-1.34,1.89-.08,1.07-.04,1.97-.04,7.17v5.91c0,3.03-.04,5.79.16,7.21.16,1.14.31,1.58,1.34,1.81.51.12,1.34.16,1.5.16.36.04.43.12.43.28s-.16.28-.55.28c-2.01,0-4.29-.12-4.49-.12-.12,0-2.44.12-3.54.12-.36,0-.63-.08-.63-.28,0-.16.16-.28.51-.28.2,0,.63-.04.95-.12.67-.16.79-.95.9-1.89.2-1.42.2-4.22.2-7.17v-5.91Z"/>
    <path class="st0" d="M359.86,118.04c0,4.81.9,6.86,2.4,8.19,1.69,1.5,3.58,1.81,5.2,1.81,2.05,0,3.9-.55,5.4-2.28,1.58-1.81,1.93-4.81,1.93-8.24v-4.18c0-5.16,0-6.07-.08-7.13-.08-1.14-.2-1.73-1.46-1.93-.28-.04-.75-.08-1.1-.08-.23,0-.39-.12-.39-.24,0-.23.2-.31.55-.31,1.7,0,3.67.12,3.82.12.2,0,1.89-.12,2.99-.12.39,0,.55.08.55.28,0,.16-.16.28-.39.28s-.31,0-.71.04c-1.1.12-1.26.83-1.34,1.97-.04,1.07-.04,1.97-.04,7.13v3.51c0,3.55-.39,7.8-3.19,10.2-2.56,2.17-5.08,2.36-7.21,2.36-1.1,0-4.81,0-7.37-2.36-1.7-1.58-2.92-3.94-2.92-8.83v-4.89c0-5.2,0-6.1-.12-7.17-.04-1.07-.24-1.73-1.46-1.89-.23-.04-.71-.08-1.02-.08-.28,0-.43-.12-.43-.24,0-.23.16-.31.59-.31,1.69,0,3.82.12,4.1.12.32,0,2.64-.12,3.71-.12.43,0,.55.08.55.28s-.28.28-.47.28c-.24,0-.55.04-.87.08-.94.12-1.1.79-1.18,1.89-.04,1.07-.04,1.97-.04,7.17v4.69Z"/>
    <path class="st0" d="M412.82,124.66c.12.95.36,3.15,1.89,3.51.67.16,1.46.24,2.01.28.16,0,.51.04.51.24s-.16.31-.59.31c-.71,0-4.96-.16-6.22-.24-.87-.08-1.18-.16-1.18-.35,0-.12.16-.28.35-.36.2-.08.31-.55.24-1.1l-1.74-16.86-8.35,16.94c-.75,1.54-.87,1.89-1.22,1.89-.24,0-.43-.35-1.18-1.69-.63-1.14-3.78-7.45-4.02-7.8-.24-.47-4.1-8.11-4.41-8.94l-1.46,15.17c-.04.55-.04.9-.04,1.5,0,.43.2,1.02.98,1.18.43.08.71.08,1.1.12.31.04.39.16.39.24,0,.28-.24.31-.67.31-1.26,0-2.95-.12-3.27-.12-.39,0-2.05.12-3.03.12-.36,0-.59-.04-.59-.31,0-.08.16-.24.51-.24.28,0,.31,0,.75-.04.94-.08,1.3-1.03,1.49-2.6l2.64-21.63c.08-.67.24-.98.43-.98s.31.12.59.63l10.56,20.45,10.04-20.41c.2-.43.36-.67.59-.67s.35.35.39.98l2.48,20.49Z"/>
  </g>
</svg>