<?xml version="1.0" encoding="UTF-8"?>
<svg class="custom hero__logo--svg" width="928" height="241" viewBox="0 0 928 241" fill="none" xmlns="http://www.w3.org/2000/svg">
<path d="M162 90.0001C195.2 90.1001 219.9 114.7 219.8 146C219.7 177.3 194.9 202 161.7 201.9C128.5 201.8 103.9 177 104 145.7C104 114.4 128.8 89.9001 162 90.0001ZM161.9 192.9C183.4 193 202.3 173.4 202.3 145.8C202.4 119.6 184.9 98.7001 162.1 98.7001C139.1 98.6001 121.6 119.4 121.5 145.6C121.5 171.9 139 192.8 161.9 192.9Z" fill="#092F87"/>
<path d="M53 199.4V196.5C65.3 194.9 66.7 189.3 66.7 176V81.8C66.7 66.8 44.4 66.3 35.8 66.3C18.6 66.3 11 73.1 7.39999 81.7H5.89999C5.89999 78.2 6.3 73.1 6.3 69.6C6.3 66.1 0.6 58.4 0 54.7C5.6 56.2 40.2 56.5 74.4 56.6C109.1 56.6 142.8 56.2 149.2 54.7C148.6 58.4 142.9 65.9 142.9 69.8C142.9 73.7 143.2 78.1 143.3 81.5H141.7C138.2 73 130.7 66.3999 113.5 66.3999C96.3 66.3999 82.6 67.2 82.6 81.8V176C82.6 189.5 84.1 194.9 96.6 196.4V199.3C89.6 199.1 81.3 199.1 74.5 199.1C67.8 199.2 59.7 199.3 53 199.4Z" fill="#092F87"/>
<path d="M593.2 233.4C593.2 233.4 583.8 236.9 576.3 236.9C543.4 236.9 518.9 209.5 483.4 152.9C500.3 148.2 511.6 134.8 511.6 119.2C511.6 103.6 497.1 91.3 469.6 91.2C465.7 91.2 461.1 91.5 456.5 91.8C452.3 92.1 448.4 92.3 445.4 92.3C442.4 92.3 438.2 92.2 434.3 92.2C430.4 92.2 426.7 92.1 423.2 92.1H422.6V95.3H423.1C435.2 96.9 436.3 102.3 436.3 115.2V174.5C436.3 187.9 435 194.9 423 196.5H422.5V199.6H423.1C432.2 199.4 439.3 199.4 444.8 199.4C450.3 199.4 461 199.5 467.1 199.6H467.7V196.7H467.2C454.9 195.1 453.5 188.1 453.5 174.7V117.7C453.5 111 453.9 106.4 456 104C457.8 101.9 460.8 101.1 467.4 101.1C488.1 101.1 493.6 114.2 493.6 121.9C493.6 129.6 490.9 135.4 485.6 139.4C480.8 143 474 144.9 465.7 144.9H460L465.6 154.8C498 211.1 533.8 240.9 569.3 240.9C577.4 240.9 585.4 238.7 593 234.4L593.4 234.2L593.1 233.4H593.2Z" fill="#092F87"/>
<path d="M567.4 56.8999V59.0999C554.8 60.5999 553.3 65.7999 553.3 79.2999V173.1C553.3 188.3 553.6 189.4 578.6 189.4C603.6 189.4 612.1 184.3 618.4 175.7L619.8 176.8C616.2 183.6 613.7 193.9 612.4 200.5C604.9 199 591.9 199 574 199C556.1 199 534.9 199.1 523.7 199.4V196.5C536 194.9 537.4 189.3 537.4 176V79.2999C537.4 65.9999 536 60.5999 523.7 59.0999V56.8999C530.5 56.8999 560.5 56.8999 567.4 56.8999Z" fill="#092F87"/>
<path d="M266.8 199.4C259.6 181.7 253.1 168.4 246.9 154.5C240.9 141.3 235.3 128.8 229.5 114.5C224.5 102.1 220.5 96.1 210.5 95.3H210V91.8H210.6C219 91.9 228.3 92.1 236.4 92.1C244.5 92.1 243.8 92 247 92C250.2 92 250.8 91.9 253.7 91.9H254.3V95.4H253.8C244.6 95.9 243.9 98.7 243.9 102.3C243.9 105.9 245.9 108.5 249.8 117.5C254.4 128.2 262.2 145.9 273.4 174.5C284.1 149.6 291.6 134 296.7 123.6C302.4 111.9 304.7 107 304.7 103.2C304.7 99.4 300.5 95.7 291.8 95.5H291.3V91.9H291.9C294.8 91.9 296.9 92 298.8 92C302.5 92.1 305.2 92.1 310.3 92.1C315.4 92.1 322.9 92 331.4 91.9C337.6 92 345.9 91.9 353.9 91.8C359.4 91.7 364.5 91.7 368.6 91.7C389.3 91.7 406.9 91.7 413.6 90.4H414.4C414.4 90.3 414.3 91.1 414.3 91.1C414 92.9 412.6 95 411.2 97.1C409.6 99.5 408 101.9 408 103.9C408 105.9 408.1 110.2 408.3 113.3C408.3 114.3 408.4 115.2 408.4 116V116.5L406 116.7L405.8 116.3C402.3 107.8 399.6 101.1 382.6 101.1C365.6 101.1 361.8 101.6 361.8 116V136.3H375.5C389.8 136.3 394.8 136 395.6 128.2V127.7H398.6V128.3C398.4 135.3 398.4 139.3 398.4 142C398.4 144.7 398.4 148.2 398.5 154.9V155.5H395.5V155C394.5 147.9 389.2 147.2 375.3 147.2H361.6V173.4C361.7 188.3 361.7 189.2 382.4 189.3H382.7C403 189.3 407.3 184.7 413.7 176L414 175.6L416.2 177L416 177.5C412.4 184.3 409.8 193.8 408.6 200.4V200.9C408.5 200.9 408 200.8 408 200.8C400.5 199.3 388.7 199.3 370.9 199.2C360 199.2 343 199.3 331.3 199.5H330.7V196.5H331.2C343.3 194.8 344.5 189.4 344.5 176.4V114.6C344.5 106.1 344 100.7 341 97.7C339.2 95.9 336.6 95.1 332.9 95.1C325.7 95.1 323.3 98.9 321.3 101.9L321.1 102.2C317.7 107.4 292 157.7 273.2 199.5H266.8V199.4Z" fill="#092F87"/>
<path d="M853.5 91.3C849.6 91.3 845.4 91.5 841 91.7C835.6 92 829.5 92.2 822.7 92.2C815.9 92.2 815.4 92.2001 811.6 92.1001C807.8 92.1001 804 92 800.5 92H799.9V95.2H800.4C812.5 96.8 813.7 102.2 813.7 115.1V176.3C813.7 189.3 812.5 194.8 800.4 196.4H799.9V199.5H800.5C809.7 199.3 816.6 199.2 822.2 199.2C827.8 199.2 832.5 199.3 837.2 199.3C842.1 199.4 847.2 199.4 854.1 199.4C895.6 199.4 914.2 171.2 914.2 143.4C914.4 108.4 894.5 91.3 853.5 91.3ZM830.8 118.7C830.8 101.7 831.3 101.2 849.8 101.2C881.5 101.2 896.3 115.9 896.3 147.4C896.3 178.9 869 189.3 852.7 189.3C836.4 189.3 830.8 188 830.8 173V118.7Z" fill="#092F87"/>
<path d="M926.2 136.6L925.3 136.8C925.9 148 924.4 159 920.7 168.9C918.9 173.9 916.6 178.7 913.8 183.1C911 187.5 908 191.7 904.4 195.4C897.2 202.8 888.8 208.9 879.6 213.1C875 215.2 857.3 222.1 827.6 217C816.2 215 804.7 209.1 792.4 198.6C791.2 197.6 783.3 189.9 778.8 184.8V181.3C778.8 181.3 778.8 113 778.8 112C778.8 105.9 778.8 100.6 781.5 97.6999C783.2 95.9999 785.9 95.0999 789.7 95.0999H790.8V91.7999H777.6C775.3 91.8999 773 91.8999 770.5 91.8999C768 91.8999 763.8 91.8999 760.6 91.7999C757.5 91.7999 754.4 91.6999 751.1 91.6999H749.7V94.9999H750.5C754.3 94.9999 757 95.7999 758.7 97.4999C761.5 100.4 761.5 105.6 761.4 111.7V166.5C760 165 708.9 110.5 706.9 108.5C694 95.6999 682.3 87.4999 673.1 82.0999C668.9 79.6999 665.3 77.7999 662.2 76.3999C655.9 73.4999 652.1 72.5999 652.1 72.5999C649.6 71.7999 647.1 71.1999 644.5 70.6999C635.9 69.1999 627.2 69.4999 618.9 71.2999C612.4 72.6999 606.1 75.1999 600.3 78.4999C596.5 80.6999 592.9 83.1999 589.5 86.0999L590.1 86.7999C621.9 65.5999 645.9 76.3999 656 82.9999C660.7 86.0999 666.4 90.1999 672.9 95.8999C675.6 98.1999 678.3 100.8 681.3 103.8C681.9 104.3 682.5 105 682.8 105.4C682.8 106.1 682.8 132.8 682.8 153.1V175.7C682.8 180.2 682.8 184.1 682.1 186.8C681.3 190.7 678.2 195.3 673.3 195.3C668.4 195.3 665.7 191.6 663.7 188.3C660.1 182.4 625.4 97.3999 623.1 91.6999H615.9C611.2 102.2 581.7 164.8 579.1 168.9C577 172.1 573.7 175.2 566 176.2V178.4C572.9 178.3 581.3 178.1 588.7 178.1C596.1 178.1 592.2 178.2 600.6 178.4V175.9C591.9 175.9 592.3 172.2 592.3 169.8C592.3 167.4 593.4 164.6 595.3 160.7H634.7C636.1 164.1 637.3 167 638.5 169.7C643.8 181.8 645.9 186.9 646.2 188.9C646.7 192.9 645.2 195.8 635.7 196.3V199.3C642.3 199.3 687.9 199.2 691.3 199.2C694.7 199.2 698 199.2 701.2 199.3C704.4 199.3 707.7 199.4 711.1 199.4H711.7V196.2H710.9C709.9 195.9 708.9 195.7 708 195.5C707 195.3 706.1 195 705.3 194.5C700.4 191.4 700 183.9 700 172.9V123.3L765.6 192.3C777.3 204.7 791.2 214.9 806.6 222.1C810.5 223.9 814.1 225.4 816.8 226.2C827.7 229.2 839.1 229.6 850.3 229C865.7 228.1 876.1 223.7 882.9 220.6C893.2 215.9 902.2 208.6 909.5 199.9C916.8 191.3 922.1 181 925.1 170.1C928.1 159.2 928.5 147.7 926.2 136.6ZM614.6 151.6H599.9L612.3 123.5L616.4 114.2L617.4 116.8L620.9 125.8L630.9 151.6H614.6Z" fill="#092F87"/>
<path d="M193.3 19C194.7 19 195.3 18.3 195.5 17.7L203.3 0.499954L205 0.199951L212.4 16.8999C213.1 18.5999 213.7 19 214.8 19.1V20H213.3C211.9 20 207.6 20 207.6 20V18.8999C208.5 18.8999 209.3 18.6 209 17.8L207.2 13.5H199.6L199.1 13.8L197 18.7L199.8 19L199.6 19.8999H193.3V18.8999V19ZM203.3 4.09996L199.8 12.1H206.6L204.1 6.09996C203.8 5.49996 203.4 4.59996 203.3 4.09996Z" fill="#092F87"/>
<path d="M244.7 19C246.1 19 247 18.2 247 17.1V1.69995H243.9C241.7 1.69995 240.7 2.29996 239.4 5.29996H238.2L239.2 0.199951C239.2 0.199951 240.1 0.399948 241.4 0.399948H257.4C258.8 0.399948 259.8 0.199951 259.8 0.199951L258.8 5.29996H257.6C257.7 2.29996 256.6 1.69995 254.1 1.69995H251.1L250.7 1.99995V17.1C250.7 18 250.5 18.7 250.5 18.7L253.8 19V19.8999C253.7 19.8999 244.8 20.1 244.8 20.1V19H244.7Z" fill="#092F87"/>
<path d="M291.3 19C292.7 19 293.6 18.2 293.6 17.1V1.69995H290.5C288.3 1.69995 287.3 2.29996 286 5.29996H284.8L285.8 0.199951C285.8 0.199951 286.7 0.399948 288 0.399948H304C305.4 0.399948 306.4 0.199951 306.4 0.199951L305.4 5.29996H304.2C304.3 2.29996 303.2 1.69995 300.7 1.69995H297.7L297.3 1.99995V17.1C297.3 18 297.1 18.7 297.1 18.7L300.4 19V19.8999C300.3 19.8999 291.4 20.1 291.4 20.1V19H291.3Z" fill="#092F87"/>
<path d="M333 18.9999C334.4 18.9999 335.3 18.1999 335.3 17.1999V3.29991C335.3 1.89991 335.1 1.59991 332.7 1.19991V0.399902H341.2C347.1 0.399902 349.4 2.59991 349.4 5.09991C349.4 7.59991 346.8 9.49991 345.1 10.2999V10.6999L349.9 16.9999C351.3 18.7999 351.9 18.7999 352.7 18.8999H353.1V19.8999H347.4C347.4 19.8999 346.8 18.3999 345.4 16.5999L341.4 11.3999H339.4L339 11.6999V17.1999C339 18.0999 338.8 18.6999 338.8 18.6999L341.8 18.9999V19.8999C341.7 19.8999 333.1 20.0999 333.1 20.0999V18.9999H333ZM341.5 10.0999C343.3 10.0999 345.3 8.6999 345.3 5.8999C345.3 3.0999 343.9 1.69991 340.3 1.69991H339.2L338.8 1.99991V10.0999H341.5Z" fill="#092F87"/>
<path d="M377.1 19C378.5 19 379.1 18.3 379.3 17.7L387.1 0.499954L388.8 0.199951L396.2 16.8999C396.9 18.5999 397.5 19 398.6 19.1V20H397.1C395.7 20 391.4 20 391.4 20V18.8999C392.3 18.8999 393.1 18.6 392.8 17.8L391 13.5H383.4L382.9 13.8L380.8 18.7L383.6 19L383.4 19.8999H377.1V18.8999V19ZM387.1 4.09996L383.6 12.1H390.4L387.9 6.09996C387.6 5.49996 387.3 4.59996 387.1 4.09996Z" fill="#092F87"/>
<path d="M436.699 0C439.399 0 442.399 0.599997 444.199 0.699997L443.199 5.2H441.999C441.899 2.2 439.099 1.2 436.199 1.2C430.999 1.2 428.099 4.9 428.099 9.3C428.099 13.7 432.399 17.9 437.599 17.9C442.799 17.9 444.199 15.8 444.199 15.8L444.699 16.5C444.699 16.5 442.099 20.1 436.099 20.1C430.099 20.1 424.399 16 424.399 10.2C424.399 4.9 429.099 0 436.699 0Z" fill="#092F87"/>
<path d="M477.399 19C478.799 19 479.699 18.2 479.699 17.1V1.69995H476.599C474.399 1.69995 473.399 2.29996 472.099 5.29996H470.899L471.899 0.199951C471.899 0.199951 472.799 0.399948 474.099 0.399948H490.099C491.499 0.399948 492.499 0.199951 492.499 0.199951L491.499 5.29996H490.299C490.299 2.29996 489.299 1.69995 486.799 1.69995H483.799L483.399 1.99995V17.1C483.399 18 483.199 18.7 483.199 18.7L486.499 19V19.8999L477.499 20.1V19H477.399Z" fill="#092F87"/>
<path d="M518.999 18.9999C520.399 18.9999 521.299 18.1999 521.299 17.1999V3.29991C521.299 1.89991 521.299 1.59991 518.899 1.19991V0.399902H521.399C524.899 0.399902 525.799 0.399902 525.799 0.399902H525.999C525.999 0.399902 524.899 1.69991 524.899 4.09991V17.2999C524.899 18.1999 524.699 18.7999 524.699 18.7999L527.699 19.0999V19.9999L518.999 20.1999V19.0999V18.9999Z" fill="#092F87"/>
<path d="M555.3 18.9999C556.7 18.9999 557.6 18.1999 557.6 17.1999V3.29991C557.6 1.89991 557.4 1.59991 555 1.19991V0.399902H569.1C570.5 0.399902 571.6 0.399902 571.6 0.399902L570.6 5.3999H569.4C569.6 2.3999 568.5 1.79991 565.8 1.79991H561.7L561.3 2.09991V9.3999H567.2L567.5 7.69991L568.8 7.49991V12.8999H567.2V10.6999H561.7L561.3 10.9999V16.9999C561.3 17.8999 561.1 18.5999 561.1 18.5999H566.1C569 18.5999 569.4 18.0999 571 15.0999H572.2L571 19.9999H560.6C558.7 19.9999 555.4 19.9999 555.4 19.9999V18.9999H555.3Z" fill="#092F87"/>
<path d="M599.8 18.9999C601.2 18.9999 602.1 18.1999 602.1 17.1999V3.29991C602.1 1.89991 601.9 1.59991 599.5 1.19991V0.399902H608.2C612.1 0.399902 616.5 1.49991 616.5 5.69991C616.5 9.89991 611.7 12.1999 607.8 11.7999V10.8999C611.1 10.8999 612.5 8.79991 612.5 6.49991C612.5 3.19991 609.8 1.69991 606.7 1.69991H606.1L605.7 1.99991V17.1999C605.7 18.0999 605.5 18.6999 605.5 18.6999L608.7 18.9999V19.8999L599.8 20.0999V18.9999Z" fill="#092F87"/>
<path d="M640.3 19C641.7 19 642.3 18.3 642.5 17.7L650.3 0.499954L652 0.199951L659.4 16.8999C660.1 18.5999 660.7 19 661.8 19.1V20H660.3C658.9 20 654.6 20 654.6 20V18.8999C655.5 18.8999 656.3 18.6 656 17.8L654.2 13.5H646.6L646.1 13.8L644 18.7L646.8 19L646.6 19.8999H640.3V18.8999V19ZM650.3 4.09996L646.8 12.1H653.6L651.1 6.09996C650.8 5.49996 650.5 4.59996 650.3 4.09996Z" fill="#092F87"/>
<path d="M688.199 18.9999C689.599 18.9999 690.499 18.1999 690.499 17.1999V3.29991C690.499 1.89991 690.299 1.59991 687.899 1.19991V0.399902H696.399C702.299 0.399902 704.599 2.59991 704.599 5.09991C704.599 7.59991 701.999 9.49991 700.299 10.2999V10.6999L705.099 16.9999C706.499 18.7999 707.099 18.7999 707.899 18.8999H708.299V19.8999H702.599C702.599 19.8999 701.999 18.3999 700.599 16.5999L696.599 11.3999H694.599L694.199 11.6999V17.1999C694.199 18.0999 693.999 18.6999 693.999 18.6999L696.999 18.9999V19.8999L688.299 20.0999V18.9999H688.199ZM696.799 10.0999C698.599 10.0999 700.599 8.6999 700.599 5.8999C700.599 3.0999 699.199 1.69991 695.599 1.69991H694.499L694.099 1.99991V10.0999H696.799Z" fill="#092F87"/>
<path d="M734.499 18.9999C735.899 18.9999 736.799 18.1999 736.799 17.1999V3.29991C736.799 1.89991 736.799 1.59991 734.399 1.19991V0.399902H736.899C740.399 0.399902 741.299 0.399902 741.299 0.399902H741.499C741.499 0.399902 740.399 1.59991 740.399 3.99991V9.19991H740.999C740.999 9.19991 741.799 8.79991 742.299 8.29991L748.499 2.79991C749.099 2.19991 749.199 1.49991 747.499 1.29991V0.499908H753.899L754.099 0.999908C754.099 0.999908 752.299 1.29991 750.299 3.19991L744.099 8.69991V9.09991L751.899 17.3999C753.299 18.8999 753.599 18.9999 754.599 19.0999H754.999V20.0999H749.299C749.299 20.0999 748.999 19.0999 746.999 16.8999L741.099 10.6999H740.499V17.3999C740.499 18.2999 740.299 18.8999 740.299 18.8999L743.199 19.1999V20.0999L734.599 20.2999V19.0999H734.499V18.9999Z" fill="#092F87"/>
<path d="M172.7 12H123.5C123.1 12 122.8 11.6 122.8 11.1C122.8 10.6 123.1 10.2 123.5 10.2H172.7C173.1 10.2 173.4 10.6 173.4 11.1C173.4 11.6 173.1 12 172.7 12Z" fill="#092F87"/>
<path d="M824.299 12H775.099C774.699 12 774.399 11.6 774.399 11.1C774.399 10.6 774.699 10.2 775.099 10.2H824.299C824.699 10.2 824.999 10.6 824.999 11.1C824.999 11.6 824.699 12 824.299 12Z" fill="#092F87"/>
</svg>