<svg width="149" height="50" viewBox="0 0 149 50" fill="none" xmlns="http://www.w3.org/2000/svg">
<path d="M28.4451 0C26.9673 4.611 25.5305 9.26289 24.0426 13.8688C22.8051 11.9876 21.5933 10.0757 20.3457 8.20983C19.231 10.1575 18.1214 12.1103 16.9709 14.0273C15.8 10.3313 14.629 6.63023 13.4274 2.96494C8.96355 4.69279 4.46899 6.39508 0 8.11781C4.57126 16.573 8.79992 25.3758 12.0315 35.1755C14.1382 35.5844 16.2193 36.019 18.3208 36.433C19.2514 34.7665 20.1105 33.0285 21.0411 31.3568C22.2376 33.1818 23.4239 35.017 24.6459 36.8215C27.5554 36.6017 30.4904 36.4075 33.4254 36.2081C35.3531 24.4301 38.2216 13.5927 41.6168 3.287C37.2348 2.18792 32.8425 1.09396 28.4502 0.00511197" fill="#F81700"/>
<path d="M148.547 0.245468C143.72 1.75861 138.868 3.25131 134.061 4.7849C133.683 6.90126 133.386 9.0994 133.125 11.3333C137.635 10.8324 142.12 10.3058 146.614 9.78441C147.177 6.64566 147.826 3.48135 148.532 0.501067C148.552 0.414163 148.619 0.265916 148.547 0.240356" fill="#F81700"/>
<path d="M51.0972 25.2939C51.7108 22.3903 52.3499 19.5071 52.9686 16.6137C52.9686 16.5882 52.984 16.5728 52.9993 16.5677C53.122 16.5779 53.2703 16.5524 53.3675 16.5831C53.7765 19.7065 54.5998 22.4158 55.2543 25.299H51.0972V25.2939ZM46.3879 4.47791C46.2447 4.76929 46.1527 5.1169 46.0351 5.44407C45.2783 7.59621 44.5829 9.87615 43.9335 12.0692C41.6581 19.7729 39.6384 27.8038 38.1811 36.2488C41.4843 36.0494 44.992 35.8552 48.3821 35.6507C48.6786 34.4801 48.9394 33.2685 49.2257 32.0928C51.8386 32.103 54.4924 32.0723 57.0797 32.1081C57.3865 33.1867 57.7138 34.25 58.0154 35.3287C61.7123 35.2315 65.3581 35.1446 69.0038 35.0679C65.6751 25.6159 62.3259 16.1792 59.0023 6.72206C54.8196 5.95015 50.5961 5.22937 46.3879 4.48302" fill="#F81700"/>
<path d="M120.018 28.0289C119.072 28.7344 117.384 28.6219 115.768 28.581C115.758 26.9094 115.784 25.2122 115.753 23.5662C116.806 23.515 118.202 23.4537 119.128 23.7042C119.767 23.878 120.222 24.1847 120.508 24.6397C121.189 25.7183 120.851 27.4053 120.018 28.0289ZM119.266 13.0099C119.649 13.3882 119.787 14.0477 119.726 14.8349C119.578 16.7775 117.793 17.0842 115.768 17.1506C115.763 15.7091 115.784 14.2419 115.753 12.8259C116.858 12.7032 118.525 12.2789 119.266 13.0099ZM125.371 19.8038C125.294 19.7731 125.141 19.768 125.187 19.6197C125.141 19.4868 125.269 19.4408 125.341 19.405C125.617 19.267 125.826 19.1392 126.046 18.9756C128.045 17.5034 128.94 14.7225 128.731 11.185C128.623 9.37022 128.076 7.79574 127.013 6.89092C125.903 5.95031 124.154 5.69983 122.119 5.78673C120.841 5.83785 119.552 5.97076 118.269 6.07811C114.367 6.39506 110.471 6.68644 106.59 7.01361C106.6 16.3021 106.58 25.6621 106.575 34.9761C110.083 35.3084 113.621 35.6202 117.18 35.9422C118.939 36.1058 120.8 36.387 122.549 36.203C124.313 36.0189 125.688 35.5589 126.864 34.7307C129.048 33.192 130.387 30.3037 129.978 26.4033C129.625 23.0652 127.958 20.867 125.376 19.8089" fill="#F81700"/>
<path d="M92.9383 13.2859H102.822C102.889 11.2769 102.909 9.02766 102.945 7.13623C99.5293 7.34582 96.3181 7.57075 92.9229 7.79567C92.9229 9.63598 92.9485 11.4405 92.9383 13.2859Z" fill="#F81700"/>
<path d="M89.3795 26.2451C86.6388 26.2093 83.8316 26.24 81.0602 26.2298V7.71933C77.7979 7.68355 74.4692 7.71422 71.1762 7.70399C71.1558 7.70911 71.1456 7.72444 71.1456 7.75C71.1762 16.8033 71.1507 25.9179 71.1609 34.9968C77.2252 35.007 83.3254 34.9764 89.359 35.0121C89.3948 32.1239 89.3641 29.1692 89.3743 26.2553" fill="#F81700"/>
<path d="M133.123 13.2859C133.087 13.291 132.913 13.2706 132.893 13.3012C132.862 13.3472 132.867 13.475 132.862 13.5313C132.504 17.1761 132.192 20.8567 132.034 24.7572C131.937 27.1342 131.804 29.5062 131.804 32.0162C131.804 33.013 131.773 34.0047 131.773 35.022C131.773 35.523 131.727 36.0291 131.758 36.5096C131.773 36.7141 131.778 36.6681 131.973 36.6936C135.736 37.215 139.453 37.6138 143.099 38.1352H143.329C143.738 29.5266 144.633 21.3884 145.937 13.654C146.024 13.1377 146.147 12.6265 146.198 12.1204C146.203 12.0744 146.244 12.0488 146.182 11.9977C141.795 12.4424 137.449 12.8207 133.128 13.2859" fill="#F81700"/>
<path d="M92.9232 15.7246C92.959 22.1503 92.913 28.6579 92.9539 35.0836C96.2418 35.0734 99.5705 35.1041 102.838 35.0683V15.6786H92.9386C92.9386 15.6786 92.9181 15.7041 92.9232 15.7246Z" fill="#F81700"/>
<path d="M41.6625 42.6898C43.2834 42.6642 44.4441 43.3135 44.4441 45.118C44.4441 46.1966 44.2344 46.6567 43.268 46.9941V47.0605C44.26 48.175 45.3491 49.7494 45.3491 49.7494L42.3476 49.9999L41.1204 47.5513H41.0744V49.6677L38.5996 49.9079V42.746L41.6676 42.6898H41.6625ZM41.2483 45.8643C41.6727 45.8541 42.1022 45.7723 42.1022 45.2458C42.1022 44.6937 41.7136 44.6375 41.2636 44.6477H41.0693V45.8643H41.2432H41.2483Z" fill="#F81700"/>
<path d="M48.5303 42.7361V45.0825H50.0745V42.5419L52.5033 42.3374V49.6629L50.0745 49.8673V47.2705H48.5303V49.6629L45.897 49.8673V42.5214L48.5303 42.731V42.7361Z" fill="#F81700"/>
<path d="M57.1805 49.8366C55.0534 49.8366 53.3303 48.4921 53.3303 46.2582C53.3303 44.0243 55.0637 42.6389 57.1805 42.6389C59.2974 42.6389 61.0359 44.0652 61.0359 46.2582C61.0359 48.4512 59.3026 49.8366 57.1805 49.8366ZM57.3851 47.6384C58.147 47.6384 58.6941 47.0863 58.6941 46.294C58.6941 45.5578 58.1879 44.9342 57.3851 44.9342C56.5823 44.9342 56.0761 45.5578 56.0761 46.294C56.0761 47.0863 56.6181 47.6384 57.3851 47.6384Z" fill="#F81700"/>
<path d="M64.5081 46.1153H64.4365L64.549 49.6783L61.8697 49.8828V42.9407L64.5695 42.7311L66.6966 46.698H66.7682L66.758 42.3273L69.243 42.1228V49.6783L66.6659 49.8725L64.5132 46.1153H64.5081Z" fill="#F81700"/>
<path d="M75.036 42.5365V44.5353L72.8987 44.7295V45.3992L74.5758 45.1947V46.8254L72.8987 47.0197V47.7098L75.1076 47.5053V49.7035C75.1076 49.7035 70.2551 49.8977 70.3472 49.8977C70.4034 49.8977 70.4597 47.4747 70.4597 45.4452C70.4597 43.9832 70.4341 42.7308 70.3472 42.7308C70.4494 42.7205 75.0309 42.5365 75.0309 42.5365H75.036Z" fill="#F81700"/>
<path d="M75.9362 45.2512L78.8354 45.0468V46.9791H75.9362V45.2461V45.2512Z" fill="#F81700"/>
<path d="M82.017 49.6881C79.1535 49.8977 79.5933 49.8619 79.0615 49.8926C79.0615 49.8926 79.0513 49.8926 79.0513 49.8824C79.0513 49.5603 81.434 42.7512 81.5823 42.7512C81.7408 42.7512 84.5838 42.5671 84.5838 42.5671L87.1456 49.5245L84.4662 49.6881L84.2259 48.8344H82.2675L82.017 49.6881ZM83.7759 47.1372L83.3055 44.9544H83.2032L82.7328 47.1372H83.7708H83.7759Z" fill="#F81700"/>
<path d="M90.2341 42.3068V47.5056L92.351 47.3472V49.5862L87.6928 49.852V42.4908L90.2341 42.3068Z" fill="#F81700"/>
<path d="M96.2526 42.5982C97.8735 42.5164 99.0803 43.2985 99.0803 45.0264C99.0803 46.4424 98.1957 47.383 96.7793 47.4495L95.4805 47.521V49.6936L93.0415 49.8419V42.7618L96.2526 42.5982ZM95.6442 45.9312C96.0839 45.9108 96.5645 45.8136 96.5645 45.2513C96.5645 44.689 96.0481 44.6992 95.6339 44.7197L95.3834 44.7401V45.9568L95.639 45.9363L95.6442 45.9312Z" fill="#F81700"/>
<path d="M104.326 42.5365V44.5353L102.189 44.7295V45.3992L103.866 45.1947V46.8254L102.189 47.0197V47.7098L104.398 47.5053V49.7035C104.398 49.7035 99.5451 49.8977 99.6371 49.8977C99.6933 49.8977 99.7496 47.4747 99.7496 45.4452C99.7496 43.9832 99.724 42.7308 99.6371 42.7308C99.7394 42.7205 104.321 42.5365 104.321 42.5365H104.326Z" fill="#F81700"/>
<path d="M105.523 47.2859C105.523 47.2859 106.377 48.0322 107.441 48.0322C107.691 48.0322 108.085 47.93 108.085 47.6181C108.085 47.3063 107.753 47.2705 107.523 47.2245L107.016 47.1325C106.024 46.9587 105.191 46.3146 105.191 45.19C105.191 43.5439 106.699 42.6135 108.213 42.6135C109.455 42.6135 110.422 43.048 110.422 43.048L110.033 44.919C110.033 44.919 109.276 44.3925 108.264 44.3925C108.044 44.3925 107.722 44.4743 107.722 44.7606C107.722 45.0162 108.034 45.057 108.228 45.1031L108.801 45.2411C109.88 45.4967 110.652 46.1254 110.652 47.3217C110.652 48.9882 109.143 49.8163 107.63 49.8163C106.116 49.8163 104.951 49.1722 104.951 49.1722L105.523 47.2961V47.2859Z" fill="#F81700"/>
</svg>
