<svg width="150" height="51" viewBox="0 0 150 51" fill="none" xmlns="http://www.w3.org/2000/svg">
<path d="M103.553 15.9339L93.6005 16.026L93.7809 35.5285L103.733 35.4364L103.553 15.9339Z" fill="#F81700"/>
<path d="M28.6153 1.36962L24.3993 14.856L20.6024 9.11442L17.2491 15.0631L13.5668 3.87974L0 9.2119C0 9.2119 8.72691 24.7795 12.4336 36.5112L18.7893 37.7322L21.5236 32.573L25.2059 38.0368L34.0669 37.3642C35.9361 26.0467 38.6046 14.8731 42.0481 3.93091L28.6153 1.36719V1.36962Z" fill="#F81700"/>
<path d="M49.0228 36.555L49.8952 32.9458L57.757 32.8703L58.7416 36.1139C58.7416 36.1139 66.8568 35.78 69.7446 35.724L59.4069 7.3597L46.7393 5.24438C43.3348 15.6869 40.6834 26.3586 38.802 37.1789L49.0228 36.5574V36.555ZM53.5118 17.3295H53.8773C54.4573 20.7291 55.8683 26.0686 55.8683 26.0686L51.6718 26.1076L53.5142 17.327L53.5118 17.3295Z" fill="#F81700"/>
<path d="M90.2154 35.4681L90.1301 26.69L81.7907 26.7704L81.6104 8.15173L71.6601 8.24921L71.9257 35.646L90.2154 35.4681Z" fill="#F81700"/>
<path d="M103.529 13.5497L103.56 7.33533L93.5249 8.12979L93.5785 13.6472L103.531 13.5521L103.529 13.5497Z" fill="#F81700"/>
<path d="M119.693 36.2796C119.693 36.2796 123.529 36.6817 125.771 35.8726C128.079 35.0392 130.477 33.5185 130.928 28.9491C130.928 28.9491 131.491 24.3164 128.584 21.3822C127.857 20.6804 126.987 20.1418 126.035 19.803V19.5398C127.375 18.8282 128.396 17.6341 128.893 16.1963C129.551 14.3368 129.729 12.3409 129.407 10.3938C129.322 8.90232 128.589 7.52541 127.402 6.61884C126.295 5.99741 125.03 5.7074 123.763 5.78539C123.763 5.78539 123.156 5.74152 118.412 6.18993L107.243 7.19885L107.516 35.2731L119.696 36.2772L119.693 36.2796ZM121.743 26.4024C121.738 27.0239 121.494 27.6209 121.063 28.0669C120.359 28.5616 119.518 28.8199 118.658 28.8029L116.652 28.7761L116.603 23.7193C116.603 23.7193 118.399 23.6462 119.067 23.6949C119.881 23.6803 120.668 23.9996 121.239 24.582C121.619 25.1084 121.799 25.7518 121.745 26.4L121.743 26.4024ZM118.29 12.7162C118.658 12.6724 119.033 12.6894 119.396 12.7698C119.954 12.9404 120.366 13.4156 120.454 13.9932C120.559 14.6463 120.481 15.3189 120.225 15.9282C119.901 16.4863 119.357 16.8811 118.726 17.0151C118.009 17.1735 117.281 17.271 116.547 17.31L116.506 12.938L118.292 12.7138L118.29 12.7162Z" fill="#F81700"/>
<path d="M132.768 36.7086C132.768 36.7086 142.538 37.9052 144.412 38.1074C144.787 29.3025 145.677 20.5269 147.071 11.8243L133.696 13.2719C133.696 13.2719 132.556 26.0418 132.768 36.7086Z" fill="#F81700"/>
<path d="M134.803 4.70098C134.803 4.70098 134.233 7.69361 133.896 11.3101L147.424 9.60179C147.424 9.60179 148.294 4.77165 149.31 -0.00244141L134.803 4.69854V4.70098Z" fill="#F81700"/>
<path d="M55.7757 42.9717H58.7025C60.0429 42.9717 61.4101 43.2934 61.4101 44.8896C61.4101 45.494 61.1079 46.091 60.501 46.2836V46.3396C61.2541 46.6052 61.7317 47.156 61.7317 47.9822C61.7317 49.4054 60.4109 49.8903 59.1997 49.8903H55.7781V42.9717H55.7757ZM58.3345 45.6329C58.7025 45.6329 59.1144 45.5963 59.1144 45.1187C59.1144 44.6045 58.6465 44.641 58.2809 44.641H58.1055V45.6329H58.3345ZM58.1055 48.238H58.3906C58.8025 48.238 59.3995 48.2283 59.3995 47.6605C59.3995 47.0927 58.7586 47.0927 58.354 47.0927H58.1055V48.2405V48.238Z" fill="#F81700"/>
<path d="M62.514 42.9717H67.1663V44.8628H65.0485V45.5232H66.9835V47.3217H65.0485V48.0017H67.2418V49.8928H62.5165V42.9741L62.514 42.9717Z" fill="#F81700"/>
<path d="M68.28 42.9717H70.795V47.6702H72.9054V49.8903H68.2824V42.9717H68.28Z" fill="#F81700"/>
<path d="M80.9061 45.8157C80.889 46.944 80.889 47.8896 80.0726 48.7694C79.3391 49.5687 78.2108 49.9976 77.1361 49.9976C75.0256 49.9976 73.3197 48.6938 73.3197 46.4737C73.3197 44.2536 74.9817 42.8596 77.1556 42.8596C78.357 42.8596 80.0093 43.4567 80.5503 44.6386L78.201 45.5013C78.0085 45.1528 77.6503 44.9701 77.2457 44.9701C76.3465 44.9701 75.8518 45.7402 75.8518 46.576C75.8518 47.3364 76.3294 48.0529 77.1458 48.0529C77.5406 48.0529 78.0451 47.8701 78.1645 47.4485H77.0264V45.8157H80.9061Z" fill="#F81700"/>
<path d="M81.7932 42.9717H84.3081V49.8903H81.7932V42.9717Z" fill="#F81700"/>
<path d="M91.8409 42.9717V47.0634C91.8409 49.0812 90.5737 50 88.6387 50C86.7037 50 85.4365 49.0837 85.4365 47.0634V42.9717H87.9515V46.8246C87.9515 47.3656 87.9709 47.8433 88.6387 47.8433C89.3064 47.8433 89.3284 47.3656 89.3284 46.8246V42.9717H91.8433H91.8409Z" fill="#F81700"/>
<path d="M93.7905 42.9717H96.3762L97.3315 46.6053H97.3973C97.4436 46.3031 97.4899 45.9814 97.5728 45.6889L98.3526 42.9741H100.914L102.052 49.8928H99.6198L99.2811 46.1032H99.2348C99.1885 46.3323 99.1422 46.5711 99.0691 46.7905L98.0675 49.8903H96.6004L95.7011 46.9635C95.628 46.6711 95.5622 46.3957 95.5452 46.1008H95.4623C95.4453 46.3762 95.4258 46.6613 95.3989 46.9367L95.1065 49.8903H92.6744L93.7954 42.9717H93.7905Z" fill="#F81700"/>
</svg>
