<svg width="150" height="50" viewBox="0 0 150 50" fill="none" xmlns="http://www.w3.org/2000/svg">
<path fill-rule="evenodd" clip-rule="evenodd" d="M41.8326 3.32922C38.4236 13.6714 35.5032 24.5016 33.6265 36.3748C31.503 36.4982 29.3126 36.7396 27.0863 36.8681C26.4693 36.904 25.3381 37.1301 24.8651 36.9914C24.5411 36.8989 24.1504 36.1231 23.8779 35.6967C22.9472 34.2427 22.0629 32.9377 21.1631 31.566C20.1964 33.1895 19.3481 34.9312 18.4483 36.6215C16.2939 36.2464 14.2733 35.7378 12.0932 35.3884C8.85908 25.5035 4.56579 16.6872 0 8.1381C4.55551 6.48377 8.96192 4.68044 13.5123 3.02096C14.6846 6.69955 15.8877 10.3473 17.0292 14.0567C18.258 12.2431 19.2812 10.224 20.4227 8.32306C21.7441 10.1058 22.9164 12.0376 24.1247 13.9334C25.7186 9.38142 27.0606 4.57768 28.6288 0C32.9992 1.14057 37.4621 2.18866 41.8326 3.32922Z" fill="#F81700"/>
<path fill-rule="evenodd" clip-rule="evenodd" d="M149.252 0.246582C148.743 3.33433 147.92 6.64301 147.339 9.86434C142.82 10.3678 138.367 10.9278 133.827 11.4056C134.033 9.10396 134.398 6.96154 134.753 4.80885C139.586 3.28809 144.476 1.82385 149.252 0.246582Z" fill="#F81700"/>
<path fill-rule="evenodd" clip-rule="evenodd" d="M46.7068 4.56232C50.9435 5.26104 55.134 6.00601 59.2936 6.7818C62.6562 16.266 66.0189 25.7501 69.3507 35.2652C65.6436 35.3217 62.0033 35.445 58.3064 35.5118C57.9722 34.4277 57.6997 33.282 57.3192 32.2442H49.545C49.144 33.3642 48.9691 34.7103 48.6195 35.8817C45.1386 35.9998 41.8171 36.2773 38.3773 36.4365C40.3774 25.1182 43.1282 14.55 46.5834 4.68562C46.5371 4.58287 46.7068 4.41846 46.7068 4.56232ZM53.247 16.8311C52.6043 19.6414 51.8947 22.7138 51.396 25.4624H55.5299C55.1237 23.4433 54.3885 21.1108 53.9874 18.8656C53.8743 18.2388 53.8383 16.8825 53.4321 16.6462C53.4167 16.6359 53.3858 16.6513 53.3704 16.6462C53.2933 16.6719 53.2419 16.7232 53.247 16.8311Z" fill="#F81700"/>
<path fill-rule="evenodd" clip-rule="evenodd" d="M125.868 19.6672C126.022 20.073 126.5 20.1193 126.793 20.2837C128.881 21.4345 130.459 23.6643 130.68 26.6955C131.087 32.311 128.423 36.0204 123.091 36.4366C120.438 36.6421 117.677 36.1129 115.009 35.8817C112.345 35.6557 109.728 35.4142 107.111 35.1419C107.126 25.7656 107.065 16.3123 107.173 7.02845C112.535 6.5044 117.636 6.4222 122.845 5.7954C125.328 5.49742 127.539 6.36055 128.459 7.82993C130.382 10.8971 129.421 16.4047 127.41 18.4958C126.968 18.9582 126.32 19.287 125.868 19.6672ZM119.328 16.7079C120.263 16.1478 120.762 14.5192 120.13 13.3786C119.569 12.3614 117.723 12.7364 116.366 12.8854V17.2627C117.43 17.1035 118.505 17.2011 119.328 16.7079ZM116.366 28.7301C118.145 28.7968 120.217 28.915 121.055 27.8053C121.641 27.0295 121.703 25.4522 121.055 24.5993C120.253 23.541 118.412 23.6592 116.428 23.6746C116.284 25.2364 116.407 27.0654 116.366 28.7301Z" fill="#F81700"/>
<path fill-rule="evenodd" clip-rule="evenodd" d="M103.409 7.15161C103.517 9.08852 103.389 11.5752 103.347 13.3785H93.4137V7.82979C96.7712 7.62942 100.129 7.42905 103.409 7.15161Z" fill="#F81700"/>
<path fill-rule="evenodd" clip-rule="evenodd" d="M71.5719 7.76819H81.5056V26.3255C84.1587 26.4694 87.0792 26.3461 89.8351 26.3872V35.2035C83.7474 35.1624 77.4951 35.2857 71.5102 35.1418V7.95315C71.5051 7.8658 71.4999 7.77846 71.5719 7.76819Z" fill="#F81700"/>
<path fill-rule="evenodd" clip-rule="evenodd" d="M146.846 12.0839C146.887 13.1011 146.64 14.1338 146.476 15.1665C145.329 22.4055 144.404 30.2764 144.069 38.3477C140.167 37.8699 136.3 37.3562 132.408 36.8681C132.485 28.7248 132.778 20.7974 133.58 13.3786C138.012 12.9573 142.409 12.5 146.846 12.0839Z" fill="#F81700"/>
<path fill-rule="evenodd" clip-rule="evenodd" d="M93.4754 15.783H103.347V35.2651H93.4137V15.9679C93.4085 15.8806 93.4034 15.7932 93.4754 15.783Z" fill="#F81700"/>
<path fill-rule="evenodd" clip-rule="evenodd" d="M63.8594 42.6016C65.6744 42.391 67.2889 43.3569 67.8699 44.3896C69.361 47.0457 67.294 49.9999 64.353 49.9999C62.903 49.9999 61.3811 49.2139 60.7744 48.027C59.6844 45.9 60.9081 43.7525 62.2552 43.0332C62.7128 42.7866 63.1498 42.6838 63.8594 42.6016ZM65.587 46.979C66.3325 45.3709 64.1319 44.0762 63.2424 45.4377C62.7848 46.1364 63.011 47.3026 63.9211 47.6571C64.8569 47.7342 65.3556 47.4825 65.587 46.979Z" fill="#F81700"/>
<path fill-rule="evenodd" clip-rule="evenodd" d="M55.6534 42.6633V45.0061C56.0441 45.15 56.7023 45.0267 57.1959 45.0678V42.6633H59.7256V49.815H57.1959V47.4106C56.8051 47.2667 56.147 47.39 55.6534 47.3489V49.815H53.1237V42.6633H55.6534Z" fill="#F81700"/>
<path fill-rule="evenodd" clip-rule="evenodd" d="M71.6336 42.6633V47.5339H73.7931V49.815H68.9805C69.0216 47.4517 68.8982 44.9239 69.0422 42.6633H71.6336Z" fill="#F81700"/>
<path fill-rule="evenodd" clip-rule="evenodd" d="M77.0632 42.6633V47.5339H79.2227V49.815H74.4718C74.5129 47.4517 74.3895 44.9239 74.5335 42.6633H77.0632Z" fill="#F81700"/>
<path fill-rule="evenodd" clip-rule="evenodd" d="M85.0226 42.6633C85.8452 45.0678 86.7193 47.4208 87.5523 49.815H84.7758C84.7501 49.4913 84.6164 49.2755 84.5907 48.9519H82.678C82.4826 49.1265 82.4929 49.5067 82.4312 49.815H79.6547C80.4979 47.4311 81.2589 44.965 82.1844 42.6633H85.0226ZM83.1099 47.2256H84.0971C83.8914 46.5269 83.8348 45.6792 83.5418 45.0678C83.4132 45.8025 83.1921 46.4447 83.1099 47.2256Z" fill="#F81700"/>
<path fill-rule="evenodd" clip-rule="evenodd" d="M90.5138 42.6633C91.3056 43.9683 92.0563 45.3195 92.8584 46.6091C92.7401 45.6175 92.7041 44.0094 92.735 42.6633H95.203V49.815H92.6733C91.938 48.5357 91.1668 47.2924 90.3904 46.0542C90.5086 46.9841 90.5395 48.5357 90.5138 49.815H88.0458V42.6633H90.5138Z" fill="#F81700"/>
<path fill-rule="evenodd" clip-rule="evenodd" d="M96.1902 42.6633C98.504 42.6736 100.617 42.4527 101.928 43.5881C103.255 44.7338 103.43 47.4825 102.113 48.8286C100.957 50.0154 98.6222 49.8612 96.1285 49.815V42.8483C96.1234 42.761 96.1182 42.6736 96.1902 42.6633ZM98.7816 44.8828C98.6376 45.6843 98.761 46.7529 98.7199 47.6572C100.967 48.1401 100.864 44.5026 98.7816 44.8828Z" fill="#F81700"/>
</svg>
